%TF.GenerationSoftware,KiCad,Pcbnew,7.0.6-0*%
%TF.CreationDate,2023-10-10T09:43:15+11:00*%
%TF.ProjectId,CAN-Scope,43414e2d-5363-46f7-9065-2e6b69636164,rev?*%
%TF.SameCoordinates,Original*%
%TF.FileFunction,Copper,L2,Bot*%
%TF.FilePolarity,Positive*%
%FSLAX46Y46*%
G04 Gerber Fmt 4.6, Leading zero omitted, Abs format (unit mm)*
G04 Created by KiCad (PCBNEW 7.0.6-0) date 2023-10-10 09:43:15*
%MOMM*%
%LPD*%
G01*
G04 APERTURE LIST*
%TA.AperFunction,ComponentPad*%
%ADD10R,1.700000X1.700000*%
%TD*%
%TA.AperFunction,ComponentPad*%
%ADD11O,1.700000X1.700000*%
%TD*%
%TA.AperFunction,ComponentPad*%
%ADD12C,1.508000*%
%TD*%
%TA.AperFunction,ComponentPad*%
%ADD13R,1.508000X1.508000*%
%TD*%
%TA.AperFunction,ComponentPad*%
%ADD14R,1.428000X1.428000*%
%TD*%
%TA.AperFunction,ComponentPad*%
%ADD15C,1.428000*%
%TD*%
%TA.AperFunction,ComponentPad*%
%ADD16C,3.316000*%
%TD*%
%TA.AperFunction,ComponentPad*%
%ADD17C,0.500000*%
%TD*%
%TA.AperFunction,ComponentPad*%
%ADD18R,1.000000X1.000000*%
%TD*%
%TA.AperFunction,ComponentPad*%
%ADD19O,1.000000X1.000000*%
%TD*%
%TA.AperFunction,ConnectorPad*%
%ADD20C,5.500000*%
%TD*%
%TA.AperFunction,ComponentPad*%
%ADD21C,3.600000*%
%TD*%
%TA.AperFunction,ViaPad*%
%ADD22C,0.800000*%
%TD*%
%TA.AperFunction,Conductor*%
%ADD23C,1.000000*%
%TD*%
%TA.AperFunction,Conductor*%
%ADD24C,0.300000*%
%TD*%
G04 APERTURE END LIST*
D10*
%TO.P,J5,1,Pin_1*%
%TO.N,Net-(J5-Pin_1)*%
X193294000Y-51562000D03*
D11*
%TO.P,J5,2,Pin_2*%
%TO.N,Net-(J5-Pin_2)*%
X195834000Y-51562000D03*
%TO.P,J5,3,Pin_3*%
%TO.N,GND*%
X198374000Y-51562000D03*
%TD*%
D12*
%TO.P,J4,4,4*%
%TO.N,unconnected-(J4-Pad4)*%
X238172000Y-72812000D03*
%TO.P,J4,3,3*%
%TO.N,GND*%
X233172000Y-76312000D03*
%TO.P,J4,2,2*%
%TO.N,Net-(U4-CANL)*%
X238172000Y-79812000D03*
D13*
%TO.P,J4,1,1*%
%TO.N,Net-(U4-CANH)*%
X233172000Y-83312000D03*
%TD*%
D14*
%TO.P,J1,1,VBUS*%
%TO.N,+5V*%
X182340000Y-71334000D03*
D15*
%TO.P,J1,2,D-*%
%TO.N,USB_CONN_D-*%
X182340000Y-68834000D03*
%TO.P,J1,3,D+*%
%TO.N,USB_CONN_D+*%
X180340000Y-68834000D03*
%TO.P,J1,4,GND*%
%TO.N,GND*%
X180340000Y-71334000D03*
D16*
%TO.P,J1,5,Shield*%
%TO.N,unconnected-(J1-Shield-Pad5)*%
X177630000Y-64064000D03*
X177630000Y-76104000D03*
%TD*%
D17*
%TO.P,U3,11,PGND*%
%TO.N,GND*%
X188902000Y-82680000D03*
X187952000Y-82105000D03*
X187002000Y-82680000D03*
X187952000Y-83255000D03*
%TD*%
D18*
%TO.P,J3,1,VTref*%
%TO.N,+3.3V*%
X194564000Y-89916000D03*
D19*
%TO.P,J3,2,SWDIO/TMS*%
%TO.N,/TMS{slash}SWDAT_PA13*%
X194564000Y-88646000D03*
%TO.P,J3,3,GND*%
%TO.N,GND*%
X195834000Y-89916000D03*
%TO.P,J3,4,SWDCLK/TCK*%
%TO.N,/TCK{slash}SWCLK_PA14*%
X195834000Y-88646000D03*
%TO.P,J3,5,GND*%
%TO.N,GND*%
X197104000Y-89916000D03*
%TO.P,J3,6,SWO/TDO*%
%TO.N,/TDO{slash}SWO_PB3*%
X197104000Y-88646000D03*
%TO.P,J3,7,KEY*%
%TO.N,unconnected-(J3-KEY-Pad7)*%
X198374000Y-89916000D03*
%TO.P,J3,8,NC/TDI*%
%TO.N,/TDI_PA15*%
X198374000Y-88646000D03*
%TO.P,J3,9,GNDDetect*%
%TO.N,Net-(J3-GNDDetect)*%
X199644000Y-89916000D03*
%TO.P,J3,10,~{RESET}*%
%TO.N,/TRST_PB4*%
X199644000Y-88646000D03*
%TD*%
D11*
%TO.P,J2,3,Pin_3*%
%TO.N,GND*%
X218415000Y-56134000D03*
%TO.P,J2,2,Pin_2*%
%TO.N,/USART2_RX*%
X218415000Y-58674000D03*
D10*
%TO.P,J2,1,Pin_1*%
%TO.N,/USART2_TX*%
X218415000Y-61214000D03*
%TD*%
D20*
%TO.P,H4,1,1*%
%TO.N,GND*%
X174920000Y-91330000D03*
D21*
X174920000Y-91330000D03*
%TD*%
D20*
%TO.P,H3,1,1*%
%TO.N,GND*%
X174950000Y-51300000D03*
D21*
X174950000Y-51300000D03*
%TD*%
D20*
%TO.P,H2,1,1*%
%TO.N,GND*%
X244910000Y-51350000D03*
D21*
X244910000Y-51350000D03*
%TD*%
D20*
%TO.P,H1,1,1*%
%TO.N,GND*%
X244920000Y-91370000D03*
D21*
X244920000Y-91370000D03*
%TD*%
D22*
%TO.N,GND*%
X206756000Y-85598000D03*
X212090000Y-83820000D03*
X212598000Y-85598000D03*
X215646000Y-91440000D03*
X194564000Y-53594000D03*
X197612000Y-78232000D03*
X196596000Y-74168000D03*
X195580000Y-75184000D03*
X193040000Y-69850000D03*
X202184000Y-57658000D03*
X204724000Y-59944000D03*
X208788000Y-62738000D03*
X209550000Y-59436000D03*
%TO.N,+3.3V*%
X202932000Y-59422000D03*
X202170000Y-60184000D03*
X197739000Y-75565000D03*
X196850000Y-76454000D03*
%TO.N,GND*%
X200152000Y-69342000D03*
X202184000Y-71882000D03*
%TO.N,+5V*%
X188214000Y-72898000D03*
X189738000Y-72898000D03*
X195072000Y-69850000D03*
%TO.N,GND*%
X195072000Y-86614000D03*
X185166000Y-71628000D03*
X188214000Y-67310000D03*
X201676000Y-73914000D03*
%TO.N,+3.3V*%
X218186000Y-80010000D03*
X214122000Y-81788000D03*
X215900000Y-87630000D03*
X216916000Y-88646000D03*
%TO.N,GND*%
X218186000Y-85090000D03*
X218186000Y-87122000D03*
%TO.N,+5V*%
X220980000Y-92710000D03*
%TO.N,GND*%
X218186000Y-83820000D03*
X198120000Y-86360000D03*
X201676000Y-86360000D03*
X212598000Y-74422000D03*
X213868000Y-73152000D03*
%TO.N,NRST*%
X212598000Y-72898000D03*
X210470500Y-79461239D03*
%TO.N,GND*%
X201168000Y-80010000D03*
X199898000Y-80010000D03*
X199898000Y-82804000D03*
%TO.N,/TDI_PA15*%
X206502000Y-78994000D03*
%TO.N,GND*%
X208280000Y-78994000D03*
X207010000Y-67564000D03*
X214122000Y-70866000D03*
X212344000Y-67564000D03*
X216154000Y-66548000D03*
X214884000Y-65024000D03*
X214884000Y-63500000D03*
%TO.N,NRST*%
X221488000Y-63754000D03*
X213614000Y-67564000D03*
%TO.N,GND*%
X220980000Y-71374000D03*
X218186000Y-70358000D03*
%TO.N,VDDA*%
X213614000Y-69596000D03*
X201168000Y-81534000D03*
X199898000Y-81534000D03*
%TO.N,GND*%
X188214000Y-85598000D03*
%TD*%
D23*
%TO.N,+3.3V*%
X202170000Y-60184000D02*
X202932000Y-59422000D01*
X201676000Y-70358000D02*
X201676000Y-60678000D01*
X197739000Y-75565000D02*
X200660000Y-72644000D01*
X200660000Y-72644000D02*
X200660000Y-71374000D01*
X201676000Y-60678000D02*
X202170000Y-60184000D01*
X200660000Y-71374000D02*
X201676000Y-70358000D01*
X196850000Y-76454000D02*
X197739000Y-75565000D01*
%TO.N,+5V*%
X189738000Y-72898000D02*
X188214000Y-72898000D01*
X192024000Y-72898000D02*
X189738000Y-72898000D01*
X192278000Y-72644000D02*
X192024000Y-72898000D01*
X192278000Y-72644000D02*
X195072000Y-69850000D01*
X182340000Y-75216000D02*
X180594000Y-76962000D01*
X183896000Y-90424000D02*
X186182000Y-92710000D01*
X180594000Y-87122000D02*
X183896000Y-90424000D01*
X186182000Y-92710000D02*
X204470000Y-92710000D01*
X182340000Y-71334000D02*
X182340000Y-75216000D01*
X180594000Y-76962000D02*
X180594000Y-87122000D01*
X204470000Y-92710000D02*
X220980000Y-92710000D01*
%TO.N,+3.3V*%
X214122000Y-84836000D02*
X214122000Y-83058000D01*
X214122000Y-85852000D02*
X214122000Y-84836000D01*
X214122000Y-84582000D02*
X216408000Y-82296000D01*
X216408000Y-82296000D02*
X218186000Y-80518000D01*
X218186000Y-80518000D02*
X218186000Y-80010000D01*
X214122000Y-84836000D02*
X214122000Y-84582000D01*
X214122000Y-83058000D02*
X214122000Y-81788000D01*
X216916000Y-88646000D02*
X214122000Y-85852000D01*
D24*
%TO.N,/TDI_PA15*%
X198374000Y-87630000D02*
X199390000Y-86614000D01*
X198374000Y-88646000D02*
X198374000Y-87630000D01*
X199390000Y-86614000D02*
X200152000Y-86614000D01*
%TO.N,NRST*%
X210470500Y-79461239D02*
X210470500Y-75025500D01*
X210470500Y-75025500D02*
X212598000Y-72898000D01*
%TO.N,/TDI_PA15*%
X206502000Y-80264000D02*
X200152000Y-86614000D01*
X206502000Y-78994000D02*
X206502000Y-80264000D01*
%TO.N,NRST*%
X217424000Y-63754000D02*
X221488000Y-63754000D01*
X213614000Y-67564000D02*
X217424000Y-63754000D01*
D23*
%TO.N,VDDA*%
X213614000Y-69596000D02*
X201676000Y-81534000D01*
X201676000Y-81534000D02*
X199898000Y-81534000D01*
%TD*%
%TA.AperFunction,Conductor*%
%TO.N,GND*%
G36*
X249878539Y-46394185D02*
G01*
X249924294Y-46446989D01*
X249935500Y-46498500D01*
X249935500Y-96249500D01*
X249915815Y-96316539D01*
X249863011Y-96362294D01*
X249811500Y-96373500D01*
X170060500Y-96373500D01*
X169993461Y-96353815D01*
X169947706Y-96301011D01*
X169936500Y-96249500D01*
X169936500Y-91330002D01*
X171665227Y-91330002D01*
X171684306Y-91681900D01*
X171684308Y-91681917D01*
X171741319Y-92029667D01*
X171741325Y-92029693D01*
X171835600Y-92369243D01*
X171835602Y-92369250D01*
X171966043Y-92696634D01*
X171966052Y-92696652D01*
X172131124Y-93008011D01*
X172328896Y-93299702D01*
X172451914Y-93444532D01*
X173622266Y-92274180D01*
X173785130Y-92464870D01*
X173975819Y-92627733D01*
X172802625Y-93800926D01*
X172802625Y-93800928D01*
X172812900Y-93810660D01*
X173093460Y-94023938D01*
X173093464Y-94023941D01*
X173395445Y-94205635D01*
X173715273Y-94353603D01*
X174049256Y-94466136D01*
X174393437Y-94541896D01*
X174743788Y-94579999D01*
X174743795Y-94580000D01*
X175096205Y-94580000D01*
X175096211Y-94579999D01*
X175446562Y-94541896D01*
X175790743Y-94466136D01*
X176124726Y-94353603D01*
X176444554Y-94205635D01*
X176746535Y-94023941D01*
X176746539Y-94023938D01*
X177027093Y-93810665D01*
X177027105Y-93810654D01*
X177037373Y-93800927D01*
X177037373Y-93800926D01*
X175864180Y-92627733D01*
X176054870Y-92464870D01*
X176217733Y-92274180D01*
X177388084Y-93444532D01*
X177388085Y-93444531D01*
X177511102Y-93299704D01*
X177708875Y-93008011D01*
X177873947Y-92696652D01*
X177873956Y-92696634D01*
X178004397Y-92369250D01*
X178004399Y-92369243D01*
X178098674Y-92029693D01*
X178098680Y-92029667D01*
X178155691Y-91681917D01*
X178155693Y-91681900D01*
X178174773Y-91330002D01*
X178174773Y-91329997D01*
X178155693Y-90978099D01*
X178155691Y-90978082D01*
X178098680Y-90630332D01*
X178098674Y-90630306D01*
X178004399Y-90290756D01*
X178004397Y-90290749D01*
X177873956Y-89963365D01*
X177873947Y-89963347D01*
X177708875Y-89651988D01*
X177511099Y-89360291D01*
X177388085Y-89215467D01*
X177388084Y-89215466D01*
X176217732Y-90385818D01*
X176054870Y-90195130D01*
X175864179Y-90032265D01*
X177037374Y-88859072D01*
X177027099Y-88849340D01*
X177027087Y-88849330D01*
X176746539Y-88636061D01*
X176746535Y-88636058D01*
X176444554Y-88454364D01*
X176124726Y-88306396D01*
X175790743Y-88193863D01*
X175446562Y-88118103D01*
X175096211Y-88080000D01*
X174743788Y-88080000D01*
X174393437Y-88118103D01*
X174049256Y-88193863D01*
X173715273Y-88306396D01*
X173395445Y-88454364D01*
X173093464Y-88636058D01*
X173093460Y-88636061D01*
X172812906Y-88849334D01*
X172802625Y-88859071D01*
X172802625Y-88859073D01*
X173975819Y-90032266D01*
X173785130Y-90195130D01*
X173622267Y-90385818D01*
X172451914Y-89215466D01*
X172451913Y-89215466D01*
X172328896Y-89360296D01*
X172131124Y-89651988D01*
X171966052Y-89963347D01*
X171966043Y-89963365D01*
X171835602Y-90290749D01*
X171835600Y-90290756D01*
X171741325Y-90630306D01*
X171741319Y-90630332D01*
X171684308Y-90978082D01*
X171684306Y-90978099D01*
X171665227Y-91329997D01*
X171665227Y-91330002D01*
X169936500Y-91330002D01*
X169936500Y-76103999D01*
X175466456Y-76103999D01*
X175486606Y-76398603D01*
X175486607Y-76398605D01*
X175546682Y-76687705D01*
X175546687Y-76687722D01*
X175645572Y-76965956D01*
X175781426Y-77228144D01*
X175781430Y-77228150D01*
X175951708Y-77469380D01*
X175951712Y-77469384D01*
X175951714Y-77469387D01*
X176046418Y-77570790D01*
X176153266Y-77685196D01*
X176153272Y-77685201D01*
X176382320Y-77871545D01*
X176382324Y-77871548D01*
X176382326Y-77871549D01*
X176382327Y-77871550D01*
X176634629Y-78024979D01*
X176634631Y-78024980D01*
X176634633Y-78024981D01*
X176658137Y-78035190D01*
X176905473Y-78142623D01*
X177189814Y-78222292D01*
X177482352Y-78262499D01*
X177482353Y-78262500D01*
X177482355Y-78262500D01*
X177777647Y-78262500D01*
X177777647Y-78262499D01*
X178070186Y-78222292D01*
X178354527Y-78142623D01*
X178625371Y-78024979D01*
X178877673Y-77871550D01*
X179106734Y-77685196D01*
X179308286Y-77469387D01*
X179368196Y-77384512D01*
X179422937Y-77341096D01*
X179492462Y-77334167D01*
X179554697Y-77365925D01*
X179589882Y-77426289D01*
X179593500Y-77456022D01*
X179593500Y-87109283D01*
X179591243Y-87198362D01*
X179591243Y-87198370D01*
X179602064Y-87258739D01*
X179602718Y-87263404D01*
X179608925Y-87324430D01*
X179608927Y-87324444D01*
X179619208Y-87357213D01*
X179621079Y-87364837D01*
X179627142Y-87398652D01*
X179627142Y-87398655D01*
X179649894Y-87455612D01*
X179651474Y-87460051D01*
X179669841Y-87518588D01*
X179669844Y-87518595D01*
X179686509Y-87548619D01*
X179689879Y-87555714D01*
X179702622Y-87587614D01*
X179702627Y-87587624D01*
X179736377Y-87638833D01*
X179738818Y-87642863D01*
X179768588Y-87696498D01*
X179768589Y-87696499D01*
X179768591Y-87696502D01*
X179790968Y-87722567D01*
X179795693Y-87728835D01*
X179808263Y-87747906D01*
X179814598Y-87757519D01*
X179857978Y-87800899D01*
X179861169Y-87804343D01*
X179901131Y-87850892D01*
X179901130Y-87850892D01*
X179928299Y-87871923D01*
X179934186Y-87877107D01*
X183114255Y-91057175D01*
X183114276Y-91057198D01*
X184913476Y-92856396D01*
X185465548Y-93408468D01*
X185526941Y-93473053D01*
X185526944Y-93473055D01*
X185526947Y-93473058D01*
X185561053Y-93496795D01*
X185577303Y-93508106D01*
X185581044Y-93510926D01*
X185628593Y-93549698D01*
X185659045Y-93565604D01*
X185665756Y-93569671D01*
X185693951Y-93589295D01*
X185750332Y-93613490D01*
X185754567Y-93615501D01*
X185808951Y-93643909D01*
X185841973Y-93653356D01*
X185849365Y-93655989D01*
X185880940Y-93669539D01*
X185880941Y-93669540D01*
X185894054Y-93672234D01*
X185941055Y-93681892D01*
X185945595Y-93683006D01*
X186004582Y-93699886D01*
X186038841Y-93702494D01*
X186046609Y-93703585D01*
X186080255Y-93710500D01*
X186080259Y-93710500D01*
X186141601Y-93710500D01*
X186146308Y-93710678D01*
X186182651Y-93713446D01*
X186207475Y-93715337D01*
X186207475Y-93715336D01*
X186207476Y-93715337D01*
X186241559Y-93710996D01*
X186249389Y-93710500D01*
X221030743Y-93710500D01*
X221182439Y-93695074D01*
X221376579Y-93634162D01*
X221376580Y-93634161D01*
X221376588Y-93634159D01*
X221554502Y-93535409D01*
X221708895Y-93402866D01*
X221833448Y-93241958D01*
X221923060Y-93059271D01*
X221974063Y-92862285D01*
X221984369Y-92659064D01*
X221953556Y-92457929D01*
X221900016Y-92313365D01*
X221882888Y-92267118D01*
X221882887Y-92267117D01*
X221882886Y-92267113D01*
X221775252Y-92094429D01*
X221635059Y-91946947D01*
X221518696Y-91865956D01*
X221468050Y-91830705D01*
X221281056Y-91750459D01*
X221081741Y-91709500D01*
X204571741Y-91709500D01*
X186647783Y-91709500D01*
X186580744Y-91689815D01*
X186560102Y-91673181D01*
X186256923Y-91370002D01*
X241665227Y-91370002D01*
X241684306Y-91721900D01*
X241684308Y-91721917D01*
X241741319Y-92069667D01*
X241741325Y-92069693D01*
X241835600Y-92409243D01*
X241835602Y-92409250D01*
X241966043Y-92736634D01*
X241966052Y-92736652D01*
X242131124Y-93048011D01*
X242328896Y-93339702D01*
X242451914Y-93484532D01*
X243622266Y-92314180D01*
X243785130Y-92504870D01*
X243975819Y-92667733D01*
X242802625Y-93840926D01*
X242802625Y-93840928D01*
X242812900Y-93850660D01*
X243093460Y-94063938D01*
X243093464Y-94063941D01*
X243395445Y-94245635D01*
X243715273Y-94393603D01*
X244049256Y-94506136D01*
X244393437Y-94581896D01*
X244743788Y-94619999D01*
X244743795Y-94620000D01*
X245096205Y-94620000D01*
X245096211Y-94619999D01*
X245446562Y-94581896D01*
X245790743Y-94506136D01*
X246124726Y-94393603D01*
X246444554Y-94245635D01*
X246746535Y-94063941D01*
X246746539Y-94063938D01*
X247027093Y-93850665D01*
X247027105Y-93850654D01*
X247037373Y-93840927D01*
X247037373Y-93840926D01*
X245864180Y-92667733D01*
X246054870Y-92504870D01*
X246217733Y-92314180D01*
X247388084Y-93484532D01*
X247388085Y-93484531D01*
X247511102Y-93339704D01*
X247708875Y-93048011D01*
X247873947Y-92736652D01*
X247873956Y-92736634D01*
X248004397Y-92409250D01*
X248004399Y-92409243D01*
X248098674Y-92069693D01*
X248098680Y-92069667D01*
X248155691Y-91721917D01*
X248155693Y-91721900D01*
X248174773Y-91370002D01*
X248174773Y-91369997D01*
X248155693Y-91018099D01*
X248155691Y-91018082D01*
X248098680Y-90670332D01*
X248098674Y-90670306D01*
X248004399Y-90330756D01*
X248004397Y-90330749D01*
X247873956Y-90003365D01*
X247873947Y-90003347D01*
X247708875Y-89691988D01*
X247511099Y-89400291D01*
X247388085Y-89255467D01*
X247388084Y-89255466D01*
X246217732Y-90425818D01*
X246054870Y-90235130D01*
X245864180Y-90072266D01*
X247037374Y-88899073D01*
X247037373Y-88899072D01*
X247027099Y-88889340D01*
X247027087Y-88889330D01*
X246746539Y-88676061D01*
X246746535Y-88676058D01*
X246444554Y-88494364D01*
X246124726Y-88346396D01*
X245790743Y-88233863D01*
X245446562Y-88158103D01*
X245096211Y-88120000D01*
X244743788Y-88120000D01*
X244393437Y-88158103D01*
X244049256Y-88233863D01*
X243715273Y-88346396D01*
X243395445Y-88494364D01*
X243093464Y-88676058D01*
X243093460Y-88676061D01*
X242812906Y-88889334D01*
X242802625Y-88899071D01*
X242802625Y-88899073D01*
X243975819Y-90072266D01*
X243785130Y-90235130D01*
X243622266Y-90425818D01*
X242451914Y-89255466D01*
X242451913Y-89255466D01*
X242328896Y-89400296D01*
X242131124Y-89691988D01*
X241966052Y-90003347D01*
X241966043Y-90003365D01*
X241835602Y-90330749D01*
X241835600Y-90330756D01*
X241741325Y-90670306D01*
X241741319Y-90670332D01*
X241684308Y-91018082D01*
X241684306Y-91018099D01*
X241665227Y-91369997D01*
X241665227Y-91370002D01*
X186256923Y-91370002D01*
X184682472Y-89795552D01*
X184682470Y-89795549D01*
X183532921Y-88646000D01*
X193558659Y-88646000D01*
X193577975Y-88842129D01*
X193583114Y-88859071D01*
X193592296Y-88889340D01*
X193635187Y-89030729D01*
X193636321Y-89032850D01*
X193636580Y-89034094D01*
X193637518Y-89036359D01*
X193637088Y-89036536D01*
X193650564Y-89101253D01*
X193626233Y-89165614D01*
X193620205Y-89173666D01*
X193620202Y-89173671D01*
X193569908Y-89308517D01*
X193563501Y-89368116D01*
X193563500Y-89368135D01*
X193563500Y-90463870D01*
X193563501Y-90463876D01*
X193569908Y-90523483D01*
X193620202Y-90658328D01*
X193620206Y-90658335D01*
X193706452Y-90773544D01*
X193706455Y-90773547D01*
X193821664Y-90859793D01*
X193821671Y-90859797D01*
X193956517Y-90910091D01*
X193956516Y-90910091D01*
X193963444Y-90910835D01*
X194016127Y-90916500D01*
X195111872Y-90916499D01*
X195171483Y-90910091D01*
X195193112Y-90902024D01*
X195306329Y-90859797D01*
X195306329Y-90859796D01*
X195306331Y-90859796D01*
X195314822Y-90853439D01*
X195380284Y-90829021D01*
X195443628Y-90842502D01*
X195443830Y-90842016D01*
X195446461Y-90843105D01*
X195447585Y-90843345D01*
X195449462Y-90844348D01*
X195584000Y-90885159D01*
X195584000Y-90123672D01*
X195621871Y-90168805D01*
X195721129Y-90226112D01*
X195805564Y-90241000D01*
X195862436Y-90241000D01*
X195946871Y-90226112D01*
X196046129Y-90168805D01*
X196048483Y-90166000D01*
X196084000Y-90166000D01*
X196084000Y-90885159D01*
X196218534Y-90844349D01*
X196392259Y-90751492D01*
X196397320Y-90748111D01*
X196398358Y-90749665D01*
X196454639Y-90725759D01*
X196523507Y-90737547D01*
X196540459Y-90748441D01*
X196540680Y-90748111D01*
X196545740Y-90751492D01*
X196719465Y-90844349D01*
X196854000Y-90885159D01*
X196854000Y-90166000D01*
X196084000Y-90166000D01*
X196048483Y-90166000D01*
X196119801Y-90081007D01*
X196159000Y-89973306D01*
X196159000Y-89858694D01*
X196119801Y-89750993D01*
X196048483Y-89666000D01*
X196889517Y-89666000D01*
X196818199Y-89750993D01*
X196779000Y-89858694D01*
X196779000Y-89973306D01*
X196818199Y-90081007D01*
X196891871Y-90168805D01*
X196991129Y-90226112D01*
X197075564Y-90241000D01*
X197132436Y-90241000D01*
X197216871Y-90226112D01*
X197316129Y-90168805D01*
X197354000Y-90123672D01*
X197354000Y-90885159D01*
X197488534Y-90844349D01*
X197662259Y-90751492D01*
X197667320Y-90748111D01*
X197668444Y-90749793D01*
X197724203Y-90726086D01*
X197793075Y-90737851D01*
X197810186Y-90748843D01*
X197810399Y-90748526D01*
X197815457Y-90751906D01*
X197815462Y-90751910D01*
X197953594Y-90825743D01*
X197986524Y-90843345D01*
X197989273Y-90844814D01*
X198177868Y-90902024D01*
X198374000Y-90921341D01*
X198570132Y-90902024D01*
X198758727Y-90844814D01*
X198932538Y-90751910D01*
X198932544Y-90751904D01*
X198937607Y-90748523D01*
X198938703Y-90750164D01*
X198994639Y-90726405D01*
X199063507Y-90738194D01*
X199080148Y-90748888D01*
X199080393Y-90748523D01*
X199085458Y-90751907D01*
X199085462Y-90751910D01*
X199229726Y-90829021D01*
X199256524Y-90843345D01*
X199259273Y-90844814D01*
X199447868Y-90902024D01*
X199644000Y-90921341D01*
X199840132Y-90902024D01*
X200028727Y-90844814D01*
X200031476Y-90843345D01*
X200162060Y-90773546D01*
X200202538Y-90751910D01*
X200354883Y-90626883D01*
X200479910Y-90474538D01*
X200572814Y-90300727D01*
X200630024Y-90112132D01*
X200649341Y-89916000D01*
X200630024Y-89719868D01*
X200572814Y-89531273D01*
X200572811Y-89531269D01*
X200572811Y-89531266D01*
X200479913Y-89357467D01*
X200476527Y-89352399D01*
X200478164Y-89351305D01*
X200454403Y-89295341D01*
X200466202Y-89226475D01*
X200476889Y-89209851D01*
X200476523Y-89209607D01*
X200479904Y-89204544D01*
X200479910Y-89204538D01*
X200572814Y-89030727D01*
X200630024Y-88842132D01*
X200649341Y-88646000D01*
X200630024Y-88449868D01*
X200572814Y-88261273D01*
X200572811Y-88261269D01*
X200572811Y-88261266D01*
X200479913Y-88087467D01*
X200479909Y-88087460D01*
X200354883Y-87935116D01*
X200202539Y-87810090D01*
X200202532Y-87810086D01*
X200028733Y-87717188D01*
X200028727Y-87717186D01*
X199840132Y-87659976D01*
X199840129Y-87659975D01*
X199644000Y-87640659D01*
X199588765Y-87646099D01*
X199520119Y-87633080D01*
X199469409Y-87585015D01*
X199452734Y-87517164D01*
X199475390Y-87451069D01*
X199488921Y-87435024D01*
X199623129Y-87300816D01*
X199684450Y-87267334D01*
X199710808Y-87264500D01*
X200066495Y-87264500D01*
X200082505Y-87266267D01*
X200082528Y-87266026D01*
X200090289Y-87266758D01*
X200090296Y-87266760D01*
X200162203Y-87264500D01*
X200192925Y-87264500D01*
X200200190Y-87263581D01*
X200206016Y-87263122D01*
X200254569Y-87261597D01*
X200274956Y-87255673D01*
X200293996Y-87251731D01*
X200315058Y-87249071D01*
X200360235Y-87231183D01*
X200365735Y-87229300D01*
X200412398Y-87215744D01*
X200430665Y-87204939D01*
X200448136Y-87196380D01*
X200467871Y-87188568D01*
X200507177Y-87160010D01*
X200512043Y-87156813D01*
X200553865Y-87132081D01*
X200568870Y-87117075D01*
X200583668Y-87104436D01*
X200600837Y-87091963D01*
X200631809Y-87054522D01*
X200635723Y-87050221D01*
X203078470Y-84607474D01*
X213116662Y-84607474D01*
X213118707Y-84623527D01*
X213121003Y-84641560D01*
X213121500Y-84649388D01*
X213121500Y-85839283D01*
X213119243Y-85928362D01*
X213119243Y-85928370D01*
X213130064Y-85988739D01*
X213130718Y-85993404D01*
X213136925Y-86054430D01*
X213136927Y-86054444D01*
X213147208Y-86087213D01*
X213149079Y-86094837D01*
X213155142Y-86128652D01*
X213155142Y-86128655D01*
X213177894Y-86185612D01*
X213179474Y-86190051D01*
X213197841Y-86248588D01*
X213197844Y-86248595D01*
X213214509Y-86278619D01*
X213217879Y-86285714D01*
X213230622Y-86317614D01*
X213230627Y-86317624D01*
X213264377Y-86368833D01*
X213266818Y-86372863D01*
X213296588Y-86426498D01*
X213296589Y-86426499D01*
X213296591Y-86426502D01*
X213318968Y-86452567D01*
X213323693Y-86458835D01*
X213336263Y-86477906D01*
X213342598Y-86487519D01*
X213385978Y-86530899D01*
X213389169Y-86534343D01*
X213429131Y-86580892D01*
X213429134Y-86580895D01*
X213456294Y-86601918D01*
X213462190Y-86607110D01*
X216244420Y-89389341D01*
X216362593Y-89485698D01*
X216542951Y-89579909D01*
X216738582Y-89635887D01*
X216806213Y-89641037D01*
X216941475Y-89651337D01*
X216941477Y-89651337D01*
X216941478Y-89651337D01*
X217143321Y-89625631D01*
X217143321Y-89625630D01*
X217143328Y-89625630D01*
X217335872Y-89559816D01*
X217511227Y-89456591D01*
X217662214Y-89320179D01*
X217769797Y-89173669D01*
X217782647Y-89156170D01*
X217782647Y-89156169D01*
X217782649Y-89156167D01*
X217867605Y-88971269D01*
X217913603Y-88773054D01*
X217918757Y-88569637D01*
X217882858Y-88369348D01*
X217807378Y-88180383D01*
X217741219Y-88080000D01*
X217695402Y-88010481D01*
X215158819Y-85473898D01*
X215125334Y-85412575D01*
X215122500Y-85386217D01*
X215122500Y-85047781D01*
X215142185Y-84980742D01*
X215158814Y-84960105D01*
X216005049Y-84113870D01*
X231917500Y-84113870D01*
X231917501Y-84113876D01*
X231923908Y-84173483D01*
X231974202Y-84308328D01*
X231974206Y-84308335D01*
X232060452Y-84423544D01*
X232060455Y-84423547D01*
X232175664Y-84509793D01*
X232175671Y-84509797D01*
X232310517Y-84560091D01*
X232310516Y-84560091D01*
X232317444Y-84560835D01*
X232370127Y-84566500D01*
X233973872Y-84566499D01*
X234033483Y-84560091D01*
X234168331Y-84509796D01*
X234283546Y-84423546D01*
X234369796Y-84308331D01*
X234420091Y-84173483D01*
X234426500Y-84113873D01*
X234426499Y-82510128D01*
X234421299Y-82461757D01*
X234420091Y-82450516D01*
X234369797Y-82315671D01*
X234369793Y-82315664D01*
X234283547Y-82200455D01*
X234283544Y-82200452D01*
X234168335Y-82114206D01*
X234168328Y-82114202D01*
X234033482Y-82063908D01*
X234033483Y-82063908D01*
X233973883Y-82057501D01*
X233973881Y-82057500D01*
X233973873Y-82057500D01*
X233973864Y-82057500D01*
X232370129Y-82057500D01*
X232370123Y-82057501D01*
X232310516Y-82063908D01*
X232175671Y-82114202D01*
X232175664Y-82114206D01*
X232060455Y-82200452D01*
X232060452Y-82200455D01*
X231974206Y-82315664D01*
X231974202Y-82315671D01*
X231923908Y-82450517D01*
X231917845Y-82506917D01*
X231917501Y-82510123D01*
X231917500Y-82510135D01*
X231917500Y-84113870D01*
X216005049Y-84113870D01*
X217033309Y-83085609D01*
X217033314Y-83085606D01*
X217043517Y-83075402D01*
X217043519Y-83075402D01*
X218884487Y-81234433D01*
X218949053Y-81173059D01*
X218984112Y-81122686D01*
X218986925Y-81118957D01*
X219025698Y-81071407D01*
X219041607Y-81040948D01*
X219045667Y-81034248D01*
X219065295Y-81006049D01*
X219089492Y-80949660D01*
X219091498Y-80945435D01*
X219119909Y-80891049D01*
X219129360Y-80858015D01*
X219131991Y-80850628D01*
X219134432Y-80844940D01*
X219145540Y-80819058D01*
X219157893Y-80758940D01*
X219159006Y-80754412D01*
X219175887Y-80695418D01*
X219178495Y-80661155D01*
X219179587Y-80653376D01*
X219180406Y-80649394D01*
X219186500Y-80619741D01*
X219186500Y-80558401D01*
X219186679Y-80553692D01*
X219191337Y-80492525D01*
X219186997Y-80458441D01*
X219186500Y-80450602D01*
X219186500Y-79959256D01*
X219171526Y-79812002D01*
X236912708Y-79812002D01*
X236930050Y-80010231D01*
X236931839Y-80030674D01*
X236988653Y-80242703D01*
X236988654Y-80242706D01*
X236988655Y-80242708D01*
X237081419Y-80441642D01*
X237081423Y-80441650D01*
X237207322Y-80621452D01*
X237207327Y-80621458D01*
X237362541Y-80776672D01*
X237362547Y-80776677D01*
X237542349Y-80902576D01*
X237542351Y-80902577D01*
X237542354Y-80902579D01*
X237741297Y-80995347D01*
X237953326Y-81052161D01*
X238109521Y-81065826D01*
X238171998Y-81071292D01*
X238172000Y-81071292D01*
X238172002Y-81071292D01*
X238226668Y-81066509D01*
X238390674Y-81052161D01*
X238602703Y-80995347D01*
X238801646Y-80902579D01*
X238981457Y-80776674D01*
X239136674Y-80621457D01*
X239262579Y-80441646D01*
X239355347Y-80242703D01*
X239412161Y-80030674D01*
X239431292Y-79812000D01*
X239412161Y-79593326D01*
X239355347Y-79381297D01*
X239262579Y-79182354D01*
X239262577Y-79182351D01*
X239262576Y-79182349D01*
X239136677Y-79002547D01*
X239136672Y-79002541D01*
X238981458Y-78847327D01*
X238981452Y-78847322D01*
X238801650Y-78721423D01*
X238801642Y-78721419D01*
X238602708Y-78628655D01*
X238602706Y-78628654D01*
X238602703Y-78628653D01*
X238451885Y-78588240D01*
X238390675Y-78571839D01*
X238390668Y-78571838D01*
X238172002Y-78552708D01*
X238171998Y-78552708D01*
X237953331Y-78571838D01*
X237953324Y-78571839D01*
X237830902Y-78604642D01*
X237741297Y-78628653D01*
X237741295Y-78628653D01*
X237741291Y-78628655D01*
X237542357Y-78721419D01*
X237542349Y-78721423D01*
X237362547Y-78847322D01*
X237362541Y-78847327D01*
X237207327Y-79002541D01*
X237207322Y-79002547D01*
X237081423Y-79182349D01*
X237081419Y-79182357D01*
X236988655Y-79381291D01*
X236988653Y-79381295D01*
X236988653Y-79381297D01*
X236974130Y-79435498D01*
X236931839Y-79593324D01*
X236931838Y-79593331D01*
X236912708Y-79811997D01*
X236912708Y-79812002D01*
X219171526Y-79812002D01*
X219171074Y-79807560D01*
X219110162Y-79613420D01*
X219110160Y-79613416D01*
X219110159Y-79613412D01*
X219011409Y-79435498D01*
X219011408Y-79435497D01*
X219011407Y-79435495D01*
X218878867Y-79281106D01*
X218878865Y-79281104D01*
X218717962Y-79156554D01*
X218717959Y-79156553D01*
X218717958Y-79156552D01*
X218535271Y-79066940D01*
X218338285Y-79015937D01*
X218338287Y-79015937D01*
X218202804Y-79009066D01*
X218135064Y-79005631D01*
X218135063Y-79005631D01*
X218135061Y-79005631D01*
X217933936Y-79036442D01*
X217933924Y-79036445D01*
X217743118Y-79107111D01*
X217743111Y-79107115D01*
X217570432Y-79214745D01*
X217570427Y-79214749D01*
X217422949Y-79354938D01*
X217422948Y-79354940D01*
X217306705Y-79521949D01*
X217226459Y-79708943D01*
X217185500Y-79908258D01*
X217185500Y-80052216D01*
X217165815Y-80119255D01*
X217149181Y-80139897D01*
X215772483Y-81516596D01*
X215772481Y-81516598D01*
X215334181Y-81954897D01*
X215272858Y-81988382D01*
X215203166Y-81983398D01*
X215147233Y-81941526D01*
X215122816Y-81876062D01*
X215122500Y-81867216D01*
X215122500Y-81737256D01*
X215107074Y-81585560D01*
X215046162Y-81391420D01*
X215046160Y-81391416D01*
X215046159Y-81391412D01*
X214947409Y-81213498D01*
X214947408Y-81213497D01*
X214947407Y-81213495D01*
X214814867Y-81059106D01*
X214814865Y-81059104D01*
X214653962Y-80934554D01*
X214653959Y-80934553D01*
X214653958Y-80934552D01*
X214471271Y-80844940D01*
X214274285Y-80793937D01*
X214274287Y-80793937D01*
X214138804Y-80787066D01*
X214071064Y-80783631D01*
X214071063Y-80783631D01*
X214071061Y-80783631D01*
X213869936Y-80814442D01*
X213869924Y-80814445D01*
X213679118Y-80885111D01*
X213679111Y-80885115D01*
X213506432Y-80992745D01*
X213506427Y-80992749D01*
X213358949Y-81132938D01*
X213358948Y-81132940D01*
X213242705Y-81299949D01*
X213162459Y-81486943D01*
X213121500Y-81686258D01*
X213121500Y-84541597D01*
X213121321Y-84546306D01*
X213116662Y-84607474D01*
X203078470Y-84607474D01*
X206901513Y-80784431D01*
X206914079Y-80774365D01*
X206913925Y-80774178D01*
X206919937Y-80769204D01*
X206919937Y-80769203D01*
X206919940Y-80769202D01*
X206969190Y-80716755D01*
X206990911Y-80695035D01*
X206995401Y-80689245D01*
X206999183Y-80684815D01*
X207032448Y-80649393D01*
X207042674Y-80630790D01*
X207053353Y-80614533D01*
X207066362Y-80597764D01*
X207085663Y-80553159D01*
X207088207Y-80547965D01*
X207111627Y-80505368D01*
X207116906Y-80484807D01*
X207123208Y-80466398D01*
X207131635Y-80446926D01*
X207139232Y-80398956D01*
X207140417Y-80393235D01*
X207148504Y-80361739D01*
X207152500Y-80346177D01*
X207152500Y-80324949D01*
X207154027Y-80305549D01*
X207157346Y-80284595D01*
X207152775Y-80236238D01*
X207152500Y-80230400D01*
X207152500Y-79664921D01*
X207172185Y-79597882D01*
X207184351Y-79581948D01*
X207234533Y-79526216D01*
X207329179Y-79362284D01*
X207387674Y-79182256D01*
X207407460Y-78994000D01*
X207387674Y-78805744D01*
X207329179Y-78625716D01*
X207234533Y-78461784D01*
X207107871Y-78321112D01*
X207107870Y-78321111D01*
X206954734Y-78209851D01*
X206954729Y-78209848D01*
X206781807Y-78132857D01*
X206781805Y-78132856D01*
X206766241Y-78129548D01*
X206704760Y-78096354D01*
X206670984Y-78035190D01*
X206675638Y-77965476D01*
X206704341Y-77920579D01*
X209608319Y-75016600D01*
X209669642Y-74983116D01*
X209739334Y-74988100D01*
X209795267Y-75029972D01*
X209819684Y-75095436D01*
X209820000Y-75104282D01*
X209820000Y-78790317D01*
X209800315Y-78857356D01*
X209788150Y-78873289D01*
X209737966Y-78929024D01*
X209643321Y-79092954D01*
X209643318Y-79092961D01*
X209603747Y-79214749D01*
X209584826Y-79272983D01*
X209565040Y-79461239D01*
X209584826Y-79649495D01*
X209584827Y-79649498D01*
X209643318Y-79829516D01*
X209643321Y-79829523D01*
X209737967Y-79993455D01*
X209851238Y-80119255D01*
X209864629Y-80134127D01*
X210017765Y-80245387D01*
X210017770Y-80245390D01*
X210190692Y-80322381D01*
X210190697Y-80322383D01*
X210375854Y-80361739D01*
X210375855Y-80361739D01*
X210565144Y-80361739D01*
X210565146Y-80361739D01*
X210750303Y-80322383D01*
X210923230Y-80245390D01*
X211076371Y-80134127D01*
X211203033Y-79993455D01*
X211297679Y-79829523D01*
X211356174Y-79649495D01*
X211375960Y-79461239D01*
X211356174Y-79272983D01*
X211297679Y-79092955D01*
X211203033Y-78929023D01*
X211152850Y-78873289D01*
X211122620Y-78810297D01*
X211121000Y-78790317D01*
X211121000Y-76312000D01*
X231913210Y-76312000D01*
X231932333Y-76530582D01*
X231932335Y-76530592D01*
X231989121Y-76742524D01*
X231989124Y-76742533D01*
X232081855Y-76941393D01*
X232081856Y-76941395D01*
X232126002Y-77004442D01*
X232126002Y-77004443D01*
X232688922Y-76441523D01*
X232712507Y-76521844D01*
X232790239Y-76642798D01*
X232898900Y-76736952D01*
X233029685Y-76796680D01*
X233039466Y-76798086D01*
X232479555Y-77357996D01*
X232542604Y-77402143D01*
X232542606Y-77402144D01*
X232741466Y-77494875D01*
X232741475Y-77494878D01*
X232953407Y-77551664D01*
X232953417Y-77551666D01*
X233171999Y-77570790D01*
X233172001Y-77570790D01*
X233390582Y-77551666D01*
X233390592Y-77551664D01*
X233602524Y-77494878D01*
X233602533Y-77494874D01*
X233801392Y-77402145D01*
X233864443Y-77357996D01*
X233304534Y-76798086D01*
X233314315Y-76796680D01*
X233445100Y-76736952D01*
X233553761Y-76642798D01*
X233631493Y-76521844D01*
X233655076Y-76441523D01*
X234217996Y-77004443D01*
X234262145Y-76941392D01*
X234354874Y-76742533D01*
X234354878Y-76742524D01*
X234411664Y-76530592D01*
X234411666Y-76530582D01*
X234430790Y-76312000D01*
X234430790Y-76311999D01*
X234411666Y-76093417D01*
X234411664Y-76093407D01*
X234354878Y-75881475D01*
X234354875Y-75881466D01*
X234262144Y-75682606D01*
X234262143Y-75682604D01*
X234217996Y-75619556D01*
X234217996Y-75619555D01*
X233655076Y-76182475D01*
X233631493Y-76102156D01*
X233553761Y-75981202D01*
X233445100Y-75887048D01*
X233314315Y-75827320D01*
X233304531Y-75825913D01*
X233864443Y-75266002D01*
X233801395Y-75221856D01*
X233801393Y-75221855D01*
X233602533Y-75129124D01*
X233602524Y-75129121D01*
X233390592Y-75072335D01*
X233390582Y-75072333D01*
X233172001Y-75053210D01*
X233171999Y-75053210D01*
X232953417Y-75072333D01*
X232953407Y-75072335D01*
X232741475Y-75129121D01*
X232741466Y-75129124D01*
X232542602Y-75221857D01*
X232479555Y-75266001D01*
X232479555Y-75266002D01*
X233039465Y-75825913D01*
X233029685Y-75827320D01*
X232898900Y-75887048D01*
X232790239Y-75981202D01*
X232712507Y-76102156D01*
X232688923Y-76182475D01*
X232126002Y-75619555D01*
X232126001Y-75619555D01*
X232081857Y-75682602D01*
X231989124Y-75881466D01*
X231989121Y-75881475D01*
X231932335Y-76093407D01*
X231932333Y-76093417D01*
X231913210Y-76311999D01*
X231913210Y-76312000D01*
X211121000Y-76312000D01*
X211121000Y-75346307D01*
X211140685Y-75279268D01*
X211157314Y-75258631D01*
X212581127Y-73834819D01*
X212642450Y-73801334D01*
X212668808Y-73798500D01*
X212692644Y-73798500D01*
X212692646Y-73798500D01*
X212877803Y-73759144D01*
X213050730Y-73682151D01*
X213203871Y-73570888D01*
X213330533Y-73430216D01*
X213425179Y-73266284D01*
X213483674Y-73086256D01*
X213503460Y-72898000D01*
X213494421Y-72812002D01*
X236912708Y-72812002D01*
X236930646Y-73017046D01*
X236931839Y-73030674D01*
X236988653Y-73242703D01*
X236988654Y-73242706D01*
X236988655Y-73242708D01*
X237081419Y-73441642D01*
X237081423Y-73441650D01*
X237207322Y-73621452D01*
X237207327Y-73621458D01*
X237362541Y-73776672D01*
X237362547Y-73776677D01*
X237542349Y-73902576D01*
X237542351Y-73902577D01*
X237542354Y-73902579D01*
X237741297Y-73995347D01*
X237953326Y-74052161D01*
X238109521Y-74065826D01*
X238171998Y-74071292D01*
X238172000Y-74071292D01*
X238172002Y-74071292D01*
X238226668Y-74066509D01*
X238390674Y-74052161D01*
X238602703Y-73995347D01*
X238801646Y-73902579D01*
X238981457Y-73776674D01*
X239136674Y-73621457D01*
X239262579Y-73441646D01*
X239355347Y-73242703D01*
X239412161Y-73030674D01*
X239430468Y-72821418D01*
X239431292Y-72812002D01*
X239431292Y-72811997D01*
X239420129Y-72684401D01*
X239412161Y-72593326D01*
X239355347Y-72381297D01*
X239262579Y-72182354D01*
X239262577Y-72182351D01*
X239262576Y-72182349D01*
X239136677Y-72002547D01*
X239136672Y-72002541D01*
X238981458Y-71847327D01*
X238981452Y-71847322D01*
X238801650Y-71721423D01*
X238801642Y-71721419D01*
X238602708Y-71628655D01*
X238602706Y-71628654D01*
X238602703Y-71628653D01*
X238451885Y-71588240D01*
X238390675Y-71571839D01*
X238390668Y-71571838D01*
X238172002Y-71552708D01*
X238171998Y-71552708D01*
X237953331Y-71571838D01*
X237953324Y-71571839D01*
X237830902Y-71604642D01*
X237741297Y-71628653D01*
X237741295Y-71628653D01*
X237741291Y-71628655D01*
X237542357Y-71721419D01*
X237542349Y-71721423D01*
X237362547Y-71847322D01*
X237362541Y-71847327D01*
X237207327Y-72002541D01*
X237207322Y-72002547D01*
X237081423Y-72182349D01*
X237081419Y-72182357D01*
X236988655Y-72381291D01*
X236988653Y-72381295D01*
X236988653Y-72381297D01*
X236977872Y-72421532D01*
X236931839Y-72593324D01*
X236931838Y-72593331D01*
X236912708Y-72811997D01*
X236912708Y-72812002D01*
X213494421Y-72812002D01*
X213483674Y-72709744D01*
X213425179Y-72529716D01*
X213330533Y-72365784D01*
X213203871Y-72225112D01*
X213145024Y-72182357D01*
X213050734Y-72113851D01*
X213050729Y-72113848D01*
X212877807Y-72036857D01*
X212877805Y-72036856D01*
X212862241Y-72033548D01*
X212800760Y-72000354D01*
X212766984Y-71939190D01*
X212771638Y-71869476D01*
X212800341Y-71824579D01*
X214357341Y-70267580D01*
X214453698Y-70149407D01*
X214547910Y-69969049D01*
X214603887Y-69773418D01*
X214619337Y-69570523D01*
X214593630Y-69368672D01*
X214527816Y-69176127D01*
X214424591Y-69000773D01*
X214288179Y-68849786D01*
X214266684Y-68834002D01*
X214124172Y-68729352D01*
X214124160Y-68729345D01*
X213939268Y-68644393D01*
X213933827Y-68642533D01*
X213876760Y-68602222D01*
X213850545Y-68537456D01*
X213863507Y-68468799D01*
X213911530Y-68418049D01*
X213923502Y-68411921D01*
X213926034Y-68410793D01*
X214066730Y-68348151D01*
X214219871Y-68236888D01*
X214346533Y-68096216D01*
X214441179Y-67932284D01*
X214499674Y-67752256D01*
X214513168Y-67623855D01*
X214539752Y-67559242D01*
X214548799Y-67549145D01*
X217657126Y-64440819D01*
X217718450Y-64407334D01*
X217744808Y-64404500D01*
X220811025Y-64404500D01*
X220878064Y-64424185D01*
X220883910Y-64428182D01*
X221035265Y-64538148D01*
X221035270Y-64538151D01*
X221208192Y-64615142D01*
X221208197Y-64615144D01*
X221393354Y-64654500D01*
X221393355Y-64654500D01*
X221582644Y-64654500D01*
X221582646Y-64654500D01*
X221767803Y-64615144D01*
X221940730Y-64538151D01*
X222093871Y-64426888D01*
X222220533Y-64286216D01*
X222315179Y-64122284D01*
X222373674Y-63942256D01*
X222393460Y-63754000D01*
X222373674Y-63565744D01*
X222315179Y-63385716D01*
X222220533Y-63221784D01*
X222093871Y-63081112D01*
X222092090Y-63079818D01*
X221940734Y-62969851D01*
X221940729Y-62969848D01*
X221767807Y-62892857D01*
X221767802Y-62892855D01*
X221622001Y-62861865D01*
X221582646Y-62853500D01*
X221393354Y-62853500D01*
X221360897Y-62860398D01*
X221208197Y-62892855D01*
X221208192Y-62892857D01*
X221035270Y-62969848D01*
X221035265Y-62969851D01*
X220883910Y-63079818D01*
X220818104Y-63103298D01*
X220811025Y-63103500D01*
X217509506Y-63103500D01*
X217493495Y-63101732D01*
X217493473Y-63101974D01*
X217485706Y-63101239D01*
X217413783Y-63103500D01*
X217383075Y-63103500D01*
X217383071Y-63103500D01*
X217383060Y-63103501D01*
X217375804Y-63104417D01*
X217369986Y-63104875D01*
X217321433Y-63106401D01*
X217306873Y-63110630D01*
X217301040Y-63112325D01*
X217281996Y-63116269D01*
X217260942Y-63118929D01*
X217260940Y-63118929D01*
X217215781Y-63136808D01*
X217210255Y-63138700D01*
X217163601Y-63152254D01*
X217145325Y-63163063D01*
X217127860Y-63171619D01*
X217108124Y-63179433D01*
X217068824Y-63207986D01*
X217063942Y-63211193D01*
X217022136Y-63235917D01*
X217007124Y-63250929D01*
X216992336Y-63263558D01*
X216975167Y-63276032D01*
X216975165Y-63276034D01*
X216944194Y-63313470D01*
X216940262Y-63317791D01*
X213630873Y-66627181D01*
X213569550Y-66660666D01*
X213543192Y-66663500D01*
X213519354Y-66663500D01*
X213486897Y-66670398D01*
X213334197Y-66702855D01*
X213334192Y-66702857D01*
X213161270Y-66779848D01*
X213161265Y-66779851D01*
X213008129Y-66891111D01*
X212881466Y-67031785D01*
X212786821Y-67195715D01*
X212786818Y-67195722D01*
X212728327Y-67375740D01*
X212728326Y-67375744D01*
X212708540Y-67564000D01*
X212728326Y-67752256D01*
X212728327Y-67752259D01*
X212786818Y-67932277D01*
X212786821Y-67932284D01*
X212881467Y-68096216D01*
X213008128Y-68236888D01*
X213008129Y-68236888D01*
X213161265Y-68348148D01*
X213161270Y-68348151D01*
X213308857Y-68413862D01*
X213362094Y-68459112D01*
X213382415Y-68525961D01*
X213363370Y-68593185D01*
X213311003Y-68639440D01*
X213304419Y-68642294D01*
X213148384Y-68704621D01*
X213148377Y-68704625D01*
X212978481Y-68816597D01*
X212978480Y-68816598D01*
X201297899Y-80497181D01*
X201236576Y-80530666D01*
X201210218Y-80533500D01*
X199847257Y-80533500D01*
X199695560Y-80548925D01*
X199501420Y-80609837D01*
X199501405Y-80609844D01*
X199323500Y-80708589D01*
X199323495Y-80708592D01*
X199169106Y-80841132D01*
X199169104Y-80841134D01*
X199044554Y-81002037D01*
X199044553Y-81002040D01*
X198954940Y-81184728D01*
X198903937Y-81381714D01*
X198893631Y-81584936D01*
X198924442Y-81786063D01*
X198924445Y-81786075D01*
X198995111Y-81976881D01*
X198995113Y-81976884D01*
X198995114Y-81976887D01*
X199012637Y-82005000D01*
X199102745Y-82149567D01*
X199102747Y-82149569D01*
X199102748Y-82149571D01*
X199242941Y-82297053D01*
X199348999Y-82370871D01*
X199409949Y-82413294D01*
X199409950Y-82413294D01*
X199409951Y-82413295D01*
X199596942Y-82493540D01*
X199796259Y-82534500D01*
X201663284Y-82534500D01*
X201752358Y-82536757D01*
X201752358Y-82536756D01*
X201752363Y-82536757D01*
X201812753Y-82525932D01*
X201817412Y-82525280D01*
X201859607Y-82520988D01*
X201878438Y-82519074D01*
X201911227Y-82508786D01*
X201918840Y-82506918D01*
X201952653Y-82500858D01*
X202009621Y-82478101D01*
X202014053Y-82476524D01*
X202072588Y-82458159D01*
X202102627Y-82441484D01*
X202109708Y-82438122D01*
X202141617Y-82425377D01*
X202192854Y-82391608D01*
X202196851Y-82389187D01*
X202250502Y-82359409D01*
X202276568Y-82337030D01*
X202282843Y-82332300D01*
X202311519Y-82313402D01*
X202354917Y-82270002D01*
X202358336Y-82266834D01*
X202404895Y-82226866D01*
X202425931Y-82199688D01*
X202431101Y-82193818D01*
X205430656Y-79194263D01*
X205491977Y-79160780D01*
X205561669Y-79165764D01*
X205617602Y-79207636D01*
X205636266Y-79243627D01*
X205674819Y-79362280D01*
X205674821Y-79362284D01*
X205769466Y-79526215D01*
X205819649Y-79581948D01*
X205849880Y-79644940D01*
X205851500Y-79664921D01*
X205851500Y-79943192D01*
X205831815Y-80010231D01*
X205815181Y-80030873D01*
X199918873Y-85927181D01*
X199857550Y-85960666D01*
X199831192Y-85963500D01*
X199475505Y-85963500D01*
X199459494Y-85961732D01*
X199459472Y-85961974D01*
X199451705Y-85961240D01*
X199451704Y-85961240D01*
X199379797Y-85963500D01*
X199349075Y-85963500D01*
X199349071Y-85963500D01*
X199349061Y-85963501D01*
X199341793Y-85964419D01*
X199335976Y-85964876D01*
X199287436Y-85966402D01*
X199287425Y-85966404D01*
X199267049Y-85972323D01*
X199248008Y-85976266D01*
X199226953Y-85978926D01*
X199226937Y-85978930D01*
X199181771Y-85996812D01*
X199176244Y-85998704D01*
X199129599Y-86012256D01*
X199111327Y-86023062D01*
X199093861Y-86031619D01*
X199074128Y-86039432D01*
X199034830Y-86067983D01*
X199029953Y-86071186D01*
X199016281Y-86079272D01*
X198988132Y-86095920D01*
X198973126Y-86110926D01*
X198958336Y-86123558D01*
X198941167Y-86136032D01*
X198941165Y-86136034D01*
X198910194Y-86173470D01*
X198906262Y-86177791D01*
X197974483Y-87109569D01*
X197961910Y-87119643D01*
X197962065Y-87119830D01*
X197956059Y-87124798D01*
X197931434Y-87151020D01*
X197906809Y-87177244D01*
X197895949Y-87188104D01*
X197885088Y-87198965D01*
X197885078Y-87198977D01*
X197880587Y-87204765D01*
X197876801Y-87209197D01*
X197843552Y-87244606D01*
X197833322Y-87263213D01*
X197822646Y-87279464D01*
X197809640Y-87296232D01*
X197809636Y-87296238D01*
X197790348Y-87340811D01*
X197787777Y-87346058D01*
X197764372Y-87388630D01*
X197764372Y-87388631D01*
X197759091Y-87409199D01*
X197752791Y-87427601D01*
X197744364Y-87447073D01*
X197736766Y-87495047D01*
X197735581Y-87500770D01*
X197723500Y-87547818D01*
X197723500Y-87569044D01*
X197721973Y-87588444D01*
X197718653Y-87609403D01*
X197718652Y-87609409D01*
X197719889Y-87622492D01*
X197706598Y-87691086D01*
X197658333Y-87741606D01*
X197590416Y-87758011D01*
X197537986Y-87743515D01*
X197488732Y-87717188D01*
X197488729Y-87717187D01*
X197488727Y-87717186D01*
X197300132Y-87659976D01*
X197300129Y-87659975D01*
X197104000Y-87640659D01*
X196907870Y-87659975D01*
X196719266Y-87717188D01*
X196545467Y-87810086D01*
X196540399Y-87813473D01*
X196539305Y-87811836D01*
X196483337Y-87835596D01*
X196414471Y-87823795D01*
X196397843Y-87813109D01*
X196397601Y-87813473D01*
X196392532Y-87810086D01*
X196218733Y-87717188D01*
X196218727Y-87717186D01*
X196030132Y-87659976D01*
X196030129Y-87659975D01*
X195834000Y-87640659D01*
X195637870Y-87659975D01*
X195449266Y-87717188D01*
X195275467Y-87810086D01*
X195270399Y-87813473D01*
X195269305Y-87811836D01*
X195213337Y-87835596D01*
X195144471Y-87823795D01*
X195127843Y-87813109D01*
X195127601Y-87813473D01*
X195122532Y-87810086D01*
X194948733Y-87717188D01*
X194948727Y-87717186D01*
X194760132Y-87659976D01*
X194760129Y-87659975D01*
X194564000Y-87640659D01*
X194367870Y-87659975D01*
X194179266Y-87717188D01*
X194005467Y-87810086D01*
X194005460Y-87810090D01*
X193853116Y-87935116D01*
X193728090Y-88087460D01*
X193728086Y-88087467D01*
X193635188Y-88261266D01*
X193577975Y-88449870D01*
X193558659Y-88646000D01*
X183532921Y-88646000D01*
X181630819Y-86743898D01*
X181597334Y-86682575D01*
X181594500Y-86656217D01*
X181594500Y-83935266D01*
X187625285Y-83935266D01*
X187784056Y-83990824D01*
X187951996Y-84009746D01*
X187952004Y-84009746D01*
X188119943Y-83990824D01*
X188278713Y-83935267D01*
X188278713Y-83935265D01*
X187952001Y-83608553D01*
X187952000Y-83608553D01*
X187625285Y-83935266D01*
X181594500Y-83935266D01*
X181594500Y-83360266D01*
X186675284Y-83360266D01*
X186834056Y-83415824D01*
X187001996Y-83434746D01*
X187002003Y-83434746D01*
X187113760Y-83422154D01*
X187182582Y-83434208D01*
X187233962Y-83481557D01*
X187244686Y-83504420D01*
X187271732Y-83581713D01*
X187565953Y-83287492D01*
X187852000Y-83287492D01*
X187890197Y-83340065D01*
X187936162Y-83355000D01*
X187967838Y-83355000D01*
X188013803Y-83340065D01*
X188052000Y-83287492D01*
X188052000Y-83222508D01*
X188013803Y-83169935D01*
X187967838Y-83155000D01*
X187936162Y-83155000D01*
X187890197Y-83169935D01*
X187852000Y-83222508D01*
X187852000Y-83287492D01*
X187565953Y-83287492D01*
X187864318Y-82989128D01*
X187925641Y-82955643D01*
X187995333Y-82960627D01*
X188039680Y-82989128D01*
X188632265Y-83581714D01*
X188632267Y-83581713D01*
X188659314Y-83504419D01*
X188700036Y-83447643D01*
X188764988Y-83421896D01*
X188790238Y-83422154D01*
X188901996Y-83434746D01*
X188902004Y-83434746D01*
X189069943Y-83415824D01*
X189228713Y-83360267D01*
X189228714Y-83360266D01*
X188636128Y-82767680D01*
X188605993Y-82712492D01*
X188802000Y-82712492D01*
X188840197Y-82765065D01*
X188886162Y-82780000D01*
X188917838Y-82780000D01*
X188963803Y-82765065D01*
X189002000Y-82712492D01*
X189002000Y-82680001D01*
X189255553Y-82680001D01*
X189582266Y-83006714D01*
X189582267Y-83006713D01*
X189637824Y-82847943D01*
X189656746Y-82680003D01*
X189656746Y-82679996D01*
X189637824Y-82512056D01*
X189582266Y-82353285D01*
X189255553Y-82679999D01*
X189255553Y-82680001D01*
X189002000Y-82680001D01*
X189002000Y-82647508D01*
X188963803Y-82594935D01*
X188917838Y-82580000D01*
X188886162Y-82580000D01*
X188840197Y-82594935D01*
X188802000Y-82647508D01*
X188802000Y-82712492D01*
X188605993Y-82712492D01*
X188602643Y-82706357D01*
X188607627Y-82636665D01*
X188636128Y-82592318D01*
X188902000Y-82326447D01*
X189228714Y-81999732D01*
X189069943Y-81944176D01*
X189069938Y-81944175D01*
X188902004Y-81925254D01*
X188901995Y-81925254D01*
X188790237Y-81937845D01*
X188721416Y-81925790D01*
X188670037Y-81878441D01*
X188659314Y-81855580D01*
X188632267Y-81778285D01*
X188632266Y-81778285D01*
X188039680Y-82370871D01*
X187978357Y-82404356D01*
X187908665Y-82399372D01*
X187864318Y-82370871D01*
X187630939Y-82137492D01*
X187852000Y-82137492D01*
X187890197Y-82190065D01*
X187936162Y-82205000D01*
X187967838Y-82205000D01*
X188013803Y-82190065D01*
X188052000Y-82137492D01*
X188052000Y-82072508D01*
X188013803Y-82019935D01*
X187967838Y-82005000D01*
X187936162Y-82005000D01*
X187890197Y-82019935D01*
X187852000Y-82072508D01*
X187852000Y-82137492D01*
X187630939Y-82137492D01*
X187271731Y-81778285D01*
X187271730Y-81778285D01*
X187244684Y-81855580D01*
X187203962Y-81912356D01*
X187139010Y-81938103D01*
X187113760Y-81937845D01*
X187002004Y-81925254D01*
X187001996Y-81925254D01*
X186834058Y-81944175D01*
X186834053Y-81944176D01*
X186675285Y-81999732D01*
X187267871Y-82592318D01*
X187301356Y-82653641D01*
X187296372Y-82723333D01*
X187267871Y-82767680D01*
X186675284Y-83360266D01*
X181594500Y-83360266D01*
X181594500Y-82680003D01*
X186247254Y-82680003D01*
X186266175Y-82847938D01*
X186266176Y-82847943D01*
X186321732Y-83006713D01*
X186321732Y-83006714D01*
X186615954Y-82712492D01*
X186902000Y-82712492D01*
X186940197Y-82765065D01*
X186986162Y-82780000D01*
X187017838Y-82780000D01*
X187063803Y-82765065D01*
X187102000Y-82712492D01*
X187102000Y-82647508D01*
X187063803Y-82594935D01*
X187017838Y-82580000D01*
X186986162Y-82580000D01*
X186940197Y-82594935D01*
X186902000Y-82647508D01*
X186902000Y-82712492D01*
X186615954Y-82712492D01*
X186648446Y-82680000D01*
X186648446Y-82679999D01*
X186321732Y-82353284D01*
X186321732Y-82353285D01*
X186266176Y-82512053D01*
X186266175Y-82512058D01*
X186247254Y-82679996D01*
X186247254Y-82680003D01*
X181594500Y-82680003D01*
X181594500Y-81424732D01*
X187625285Y-81424732D01*
X187952000Y-81751447D01*
X187952001Y-81751447D01*
X188278714Y-81424732D01*
X188119943Y-81369176D01*
X188119938Y-81369175D01*
X187952004Y-81350254D01*
X187951996Y-81350254D01*
X187784058Y-81369175D01*
X187784053Y-81369176D01*
X187625285Y-81424732D01*
X181594500Y-81424732D01*
X181594500Y-77427781D01*
X181614185Y-77360742D01*
X181630814Y-77340105D01*
X182491442Y-76479477D01*
X195844662Y-76479477D01*
X195870368Y-76681321D01*
X195870370Y-76681329D01*
X195936183Y-76873870D01*
X195936189Y-76873882D01*
X196039406Y-77049221D01*
X196039411Y-77049228D01*
X196175820Y-77200212D01*
X196339828Y-77320646D01*
X196339835Y-77320650D01*
X196517201Y-77402145D01*
X196524732Y-77405605D01*
X196590456Y-77420857D01*
X196722945Y-77451603D01*
X196926358Y-77456757D01*
X196926358Y-77456756D01*
X196926363Y-77456757D01*
X197105852Y-77424586D01*
X197126648Y-77420859D01*
X197126648Y-77420858D01*
X197126653Y-77420858D01*
X197315617Y-77345377D01*
X197485519Y-77233402D01*
X198364309Y-76354609D01*
X198364314Y-76354606D01*
X198374517Y-76344402D01*
X198374519Y-76344402D01*
X201358467Y-73360452D01*
X201423053Y-73299059D01*
X201458099Y-73248706D01*
X201460938Y-73244941D01*
X201464612Y-73240435D01*
X201499698Y-73197407D01*
X201515601Y-73166960D01*
X201519674Y-73160239D01*
X201526751Y-73150071D01*
X201539295Y-73132049D01*
X201563492Y-73075660D01*
X201565498Y-73071435D01*
X201593909Y-73017049D01*
X201603360Y-72984015D01*
X201605991Y-72976628D01*
X201619540Y-72945058D01*
X201631893Y-72884940D01*
X201633006Y-72880412D01*
X201649887Y-72821418D01*
X201652495Y-72787155D01*
X201653587Y-72779376D01*
X201660500Y-72745739D01*
X201660500Y-72684401D01*
X201660679Y-72679692D01*
X201665337Y-72618526D01*
X201660997Y-72584442D01*
X201660500Y-72576603D01*
X201660500Y-71839781D01*
X201680185Y-71772742D01*
X201696815Y-71752104D01*
X202374468Y-71074451D01*
X202439053Y-71013059D01*
X202474099Y-70962706D01*
X202476938Y-70958941D01*
X202480612Y-70954435D01*
X202515698Y-70911407D01*
X202531601Y-70880960D01*
X202535674Y-70874239D01*
X202540489Y-70867320D01*
X202555295Y-70846049D01*
X202579492Y-70789660D01*
X202581498Y-70785435D01*
X202609909Y-70731049D01*
X202619360Y-70698015D01*
X202621991Y-70690628D01*
X202630725Y-70670277D01*
X202635540Y-70659058D01*
X202647893Y-70598940D01*
X202649006Y-70594412D01*
X202665887Y-70535418D01*
X202668495Y-70501155D01*
X202669587Y-70493376D01*
X202676500Y-70459739D01*
X202676500Y-70398401D01*
X202676679Y-70393692D01*
X202681337Y-70332526D01*
X202680189Y-70323514D01*
X202676997Y-70298442D01*
X202676500Y-70290603D01*
X202676500Y-61143782D01*
X202696185Y-61076743D01*
X202712814Y-61056105D01*
X202913340Y-60855581D01*
X202913340Y-60855580D01*
X203675341Y-60093580D01*
X203771698Y-59975407D01*
X203865909Y-59795049D01*
X203921887Y-59599418D01*
X203937337Y-59396523D01*
X203911630Y-59194672D01*
X203845816Y-59002128D01*
X203742591Y-58826773D01*
X203606179Y-58675786D01*
X203606178Y-58675785D01*
X203606177Y-58675784D01*
X203603748Y-58674000D01*
X217059341Y-58674000D01*
X217079936Y-58909403D01*
X217079938Y-58909413D01*
X217141094Y-59137655D01*
X217141096Y-59137659D01*
X217141097Y-59137663D01*
X217167680Y-59194670D01*
X217240965Y-59351830D01*
X217240967Y-59351834D01*
X217349281Y-59506521D01*
X217376501Y-59545396D01*
X217376506Y-59545402D01*
X217498430Y-59667326D01*
X217531915Y-59728649D01*
X217526931Y-59798341D01*
X217485059Y-59854274D01*
X217454083Y-59871189D01*
X217322669Y-59920203D01*
X217322664Y-59920206D01*
X217207455Y-60006452D01*
X217207452Y-60006455D01*
X217121206Y-60121664D01*
X217121202Y-60121671D01*
X217070908Y-60256517D01*
X217065701Y-60304952D01*
X217064501Y-60316123D01*
X217064500Y-60316135D01*
X217064500Y-62111870D01*
X217064501Y-62111876D01*
X217070908Y-62171483D01*
X217121202Y-62306328D01*
X217121206Y-62306335D01*
X217207452Y-62421544D01*
X217207455Y-62421547D01*
X217322664Y-62507793D01*
X217322671Y-62507797D01*
X217457517Y-62558091D01*
X217457516Y-62558091D01*
X217464444Y-62558835D01*
X217517127Y-62564500D01*
X219312872Y-62564499D01*
X219372483Y-62558091D01*
X219507331Y-62507796D01*
X219622546Y-62421546D01*
X219708796Y-62306331D01*
X219759091Y-62171483D01*
X219765500Y-62111873D01*
X219765499Y-60316128D01*
X219759091Y-60256517D01*
X219756878Y-60250584D01*
X219708797Y-60121671D01*
X219708793Y-60121664D01*
X219622547Y-60006455D01*
X219622544Y-60006452D01*
X219507335Y-59920206D01*
X219507328Y-59920202D01*
X219375917Y-59871189D01*
X219319983Y-59829318D01*
X219295566Y-59763853D01*
X219310418Y-59695580D01*
X219331563Y-59667332D01*
X219453495Y-59545401D01*
X219589035Y-59351830D01*
X219688903Y-59137663D01*
X219750063Y-58909408D01*
X219770659Y-58674000D01*
X219750063Y-58438592D01*
X219688903Y-58210337D01*
X219589035Y-57996171D01*
X219453495Y-57802599D01*
X219453494Y-57802597D01*
X219286402Y-57635506D01*
X219286401Y-57635505D01*
X219100405Y-57505269D01*
X219056781Y-57450692D01*
X219049588Y-57381193D01*
X219081110Y-57318839D01*
X219100405Y-57302119D01*
X219286082Y-57172105D01*
X219453105Y-57005082D01*
X219588600Y-56811578D01*
X219688429Y-56597492D01*
X219688432Y-56597486D01*
X219745636Y-56384000D01*
X218848686Y-56384000D01*
X218874493Y-56343844D01*
X218915000Y-56205889D01*
X218915000Y-56062111D01*
X218874493Y-55924156D01*
X218848686Y-55884000D01*
X219745636Y-55884000D01*
X219745635Y-55883999D01*
X219688432Y-55670513D01*
X219688429Y-55670507D01*
X219588600Y-55456422D01*
X219588599Y-55456420D01*
X219453113Y-55262926D01*
X219453108Y-55262920D01*
X219286082Y-55095894D01*
X219092578Y-54960399D01*
X218878492Y-54860570D01*
X218878486Y-54860567D01*
X218665000Y-54803364D01*
X218665000Y-55698498D01*
X218557315Y-55649320D01*
X218450763Y-55634000D01*
X218379237Y-55634000D01*
X218272685Y-55649320D01*
X218165000Y-55698498D01*
X218165000Y-54803364D01*
X218164999Y-54803364D01*
X217951513Y-54860567D01*
X217951507Y-54860570D01*
X217737422Y-54960399D01*
X217737420Y-54960400D01*
X217543926Y-55095886D01*
X217543920Y-55095891D01*
X217376891Y-55262920D01*
X217376886Y-55262926D01*
X217241400Y-55456420D01*
X217241399Y-55456422D01*
X217141570Y-55670507D01*
X217141567Y-55670513D01*
X217084364Y-55883999D01*
X217084364Y-55884000D01*
X217981314Y-55884000D01*
X217955507Y-55924156D01*
X217915000Y-56062111D01*
X217915000Y-56205889D01*
X217955507Y-56343844D01*
X217981314Y-56384000D01*
X217084364Y-56384000D01*
X217141567Y-56597486D01*
X217141570Y-56597492D01*
X217241399Y-56811578D01*
X217376894Y-57005082D01*
X217543917Y-57172105D01*
X217729595Y-57302119D01*
X217773219Y-57356696D01*
X217780412Y-57426195D01*
X217748890Y-57488549D01*
X217729595Y-57505269D01*
X217543594Y-57635508D01*
X217376505Y-57802597D01*
X217240965Y-57996169D01*
X217240964Y-57996171D01*
X217141098Y-58210335D01*
X217141094Y-58210344D01*
X217079938Y-58438586D01*
X217079936Y-58438596D01*
X217059341Y-58673999D01*
X217059341Y-58674000D01*
X203603748Y-58674000D01*
X203442170Y-58555352D01*
X203442167Y-58555351D01*
X203257271Y-58470395D01*
X203257264Y-58470393D01*
X203059054Y-58424396D01*
X202855641Y-58419242D01*
X202655351Y-58455140D01*
X202655344Y-58455142D01*
X202493217Y-58519903D01*
X202466383Y-58530622D01*
X202466379Y-58530624D01*
X202466376Y-58530626D01*
X202296481Y-58642597D01*
X202296480Y-58642598D01*
X201534481Y-59404598D01*
X200977530Y-59961548D01*
X200912949Y-60022938D01*
X200912946Y-60022942D01*
X200877899Y-60073294D01*
X200875062Y-60077056D01*
X200836302Y-60124592D01*
X200836299Y-60124597D01*
X200820392Y-60155047D01*
X200816324Y-60161761D01*
X200796702Y-60189954D01*
X200772509Y-60246330D01*
X200770488Y-60250584D01*
X200742091Y-60304951D01*
X200742090Y-60304952D01*
X200732640Y-60337975D01*
X200730007Y-60345371D01*
X200716459Y-60376943D01*
X200704113Y-60437019D01*
X200702990Y-60441595D01*
X200686113Y-60500577D01*
X200686113Y-60500579D01*
X200683503Y-60534841D01*
X200682414Y-60542608D01*
X200676980Y-60569052D01*
X200675500Y-60576258D01*
X200675500Y-60637597D01*
X200675321Y-60642306D01*
X200670662Y-60703474D01*
X200672707Y-60719527D01*
X200675003Y-60737560D01*
X200675500Y-60745388D01*
X200675500Y-69892216D01*
X200655815Y-69959255D01*
X200639181Y-69979897D01*
X199961531Y-70657547D01*
X199896946Y-70718942D01*
X199861899Y-70769294D01*
X199859062Y-70773056D01*
X199820302Y-70820592D01*
X199820299Y-70820597D01*
X199804392Y-70851047D01*
X199800324Y-70857761D01*
X199780702Y-70885954D01*
X199756509Y-70942330D01*
X199754488Y-70946584D01*
X199726091Y-71000951D01*
X199726090Y-71000952D01*
X199716640Y-71033975D01*
X199714007Y-71041371D01*
X199700459Y-71072943D01*
X199688113Y-71133019D01*
X199686990Y-71137595D01*
X199670113Y-71196577D01*
X199670113Y-71196579D01*
X199667503Y-71230841D01*
X199666414Y-71238608D01*
X199660980Y-71265052D01*
X199659500Y-71272258D01*
X199659500Y-71333597D01*
X199659321Y-71338306D01*
X199654662Y-71399474D01*
X199656707Y-71415527D01*
X199659003Y-71433560D01*
X199659500Y-71441388D01*
X199659499Y-72178217D01*
X199639814Y-72245257D01*
X199623180Y-72265898D01*
X197086041Y-74803038D01*
X196106662Y-75782417D01*
X196021347Y-75887048D01*
X196010302Y-75900593D01*
X195927068Y-76059937D01*
X195916090Y-76080953D01*
X195860112Y-76276584D01*
X195844662Y-76479474D01*
X195844662Y-76479477D01*
X182491442Y-76479477D01*
X183038468Y-75932451D01*
X183103053Y-75871059D01*
X183126022Y-75838056D01*
X183138099Y-75820706D01*
X183140938Y-75816941D01*
X183147092Y-75809394D01*
X183179698Y-75769407D01*
X183195601Y-75738960D01*
X183199674Y-75732239D01*
X183204489Y-75725320D01*
X183219295Y-75704049D01*
X183243492Y-75647660D01*
X183245498Y-75643435D01*
X183273909Y-75589049D01*
X183283360Y-75556015D01*
X183285991Y-75548628D01*
X183299540Y-75517058D01*
X183311893Y-75456940D01*
X183313006Y-75452412D01*
X183329887Y-75393418D01*
X183332495Y-75359155D01*
X183333587Y-75351376D01*
X183340500Y-75317739D01*
X183340500Y-75256401D01*
X183340679Y-75251692D01*
X183345337Y-75190524D01*
X183345337Y-75190523D01*
X183340995Y-75156440D01*
X183340499Y-75148606D01*
X183340499Y-73822159D01*
X183340499Y-72948936D01*
X187209631Y-72948936D01*
X187240442Y-73150063D01*
X187240445Y-73150075D01*
X187311111Y-73340881D01*
X187311113Y-73340884D01*
X187311114Y-73340887D01*
X187323309Y-73360452D01*
X187418745Y-73513567D01*
X187418747Y-73513569D01*
X187418748Y-73513571D01*
X187558941Y-73661053D01*
X187687344Y-73750424D01*
X187725949Y-73777294D01*
X187725950Y-73777294D01*
X187725951Y-73777295D01*
X187912942Y-73857540D01*
X188112259Y-73898500D01*
X189636259Y-73898500D01*
X192011284Y-73898500D01*
X192100358Y-73900757D01*
X192100358Y-73900756D01*
X192100363Y-73900757D01*
X192160753Y-73889932D01*
X192165412Y-73889280D01*
X192207607Y-73884988D01*
X192226438Y-73883074D01*
X192259227Y-73872786D01*
X192266840Y-73870918D01*
X192300653Y-73864858D01*
X192357621Y-73842101D01*
X192362053Y-73840524D01*
X192420588Y-73822159D01*
X192450627Y-73805484D01*
X192457708Y-73802122D01*
X192489617Y-73789377D01*
X192540854Y-73755608D01*
X192544851Y-73753187D01*
X192598502Y-73723409D01*
X192624568Y-73701030D01*
X192630843Y-73696300D01*
X192659519Y-73677402D01*
X192702911Y-73634008D01*
X192706328Y-73630841D01*
X192752895Y-73590866D01*
X192773919Y-73563704D01*
X192779102Y-73557817D01*
X192903309Y-73433609D01*
X192903313Y-73433607D01*
X192913517Y-73423402D01*
X192913519Y-73423402D01*
X195815341Y-70521580D01*
X195911698Y-70403407D01*
X196005909Y-70223049D01*
X196061887Y-70027418D01*
X196077337Y-69824523D01*
X196070828Y-69773418D01*
X196051631Y-69622678D01*
X196051630Y-69622676D01*
X196051630Y-69622672D01*
X195985816Y-69430128D01*
X195882591Y-69254773D01*
X195746179Y-69103786D01*
X195746178Y-69103785D01*
X195746177Y-69103784D01*
X195582170Y-68983352D01*
X195582167Y-68983351D01*
X195397271Y-68898395D01*
X195397264Y-68898393D01*
X195199054Y-68852396D01*
X194995641Y-68847242D01*
X194795352Y-68883140D01*
X194795345Y-68883142D01*
X194606385Y-68958621D01*
X194606376Y-68958626D01*
X194436481Y-69070597D01*
X194436480Y-69070598D01*
X191645898Y-71861181D01*
X191584575Y-71894666D01*
X191558217Y-71897500D01*
X188163257Y-71897500D01*
X188011560Y-71912925D01*
X187817420Y-71973837D01*
X187817405Y-71973844D01*
X187639500Y-72072589D01*
X187639495Y-72072592D01*
X187485106Y-72205132D01*
X187485104Y-72205134D01*
X187360554Y-72366037D01*
X187360553Y-72366040D01*
X187270940Y-72548728D01*
X187219937Y-72745714D01*
X187209631Y-72948936D01*
X183340499Y-72948936D01*
X183340499Y-72520796D01*
X183360184Y-72453761D01*
X183390186Y-72421535D01*
X183411546Y-72405546D01*
X183497796Y-72290331D01*
X183548091Y-72155483D01*
X183554500Y-72095873D01*
X183554499Y-70572128D01*
X183548091Y-70512517D01*
X183507396Y-70403409D01*
X183497797Y-70377671D01*
X183497793Y-70377664D01*
X183411547Y-70262455D01*
X183411544Y-70262452D01*
X183296335Y-70176206D01*
X183296328Y-70176202D01*
X183161482Y-70125908D01*
X183161483Y-70125908D01*
X183101883Y-70119501D01*
X183101881Y-70119500D01*
X183101873Y-70119500D01*
X183101865Y-70119500D01*
X183014500Y-70119500D01*
X182947461Y-70099815D01*
X182901706Y-70047011D01*
X182891762Y-69977853D01*
X182920787Y-69914297D01*
X182945707Y-69893726D01*
X182945136Y-69892910D01*
X183042805Y-69824521D01*
X183123647Y-69767915D01*
X183273915Y-69617647D01*
X183395805Y-69443570D01*
X183485616Y-69250970D01*
X183540618Y-69045701D01*
X183559139Y-68834000D01*
X183540618Y-68622299D01*
X183485616Y-68417030D01*
X183395805Y-68224431D01*
X183326103Y-68124887D01*
X183273916Y-68050354D01*
X183252318Y-68028756D01*
X183123647Y-67900085D01*
X183123643Y-67900082D01*
X183123642Y-67900081D01*
X182949574Y-67778197D01*
X182949570Y-67778195D01*
X182893950Y-67752259D01*
X182756970Y-67688384D01*
X182756966Y-67688383D01*
X182756962Y-67688381D01*
X182551705Y-67633383D01*
X182551703Y-67633382D01*
X182551701Y-67633382D01*
X182551699Y-67633381D01*
X182551695Y-67633381D01*
X182340002Y-67614861D01*
X182339998Y-67614861D01*
X182128304Y-67633381D01*
X182128294Y-67633383D01*
X181923037Y-67688381D01*
X181923028Y-67688385D01*
X181730433Y-67778193D01*
X181556354Y-67900083D01*
X181427680Y-68028757D01*
X181366357Y-68062241D01*
X181296665Y-68057257D01*
X181252318Y-68028756D01*
X181123648Y-67900086D01*
X181123642Y-67900081D01*
X180949574Y-67778197D01*
X180949570Y-67778195D01*
X180893950Y-67752259D01*
X180756970Y-67688384D01*
X180756966Y-67688383D01*
X180756962Y-67688381D01*
X180551705Y-67633383D01*
X180551703Y-67633382D01*
X180551701Y-67633382D01*
X180551699Y-67633381D01*
X180551695Y-67633381D01*
X180340002Y-67614861D01*
X180339998Y-67614861D01*
X180128304Y-67633381D01*
X180128294Y-67633383D01*
X179923037Y-67688381D01*
X179923028Y-67688385D01*
X179730433Y-67778193D01*
X179556350Y-67900086D01*
X179406086Y-68050350D01*
X179284193Y-68224433D01*
X179194385Y-68417028D01*
X179194381Y-68417037D01*
X179139383Y-68622294D01*
X179139381Y-68622304D01*
X179120861Y-68833997D01*
X179120861Y-68834002D01*
X179139381Y-69045695D01*
X179139383Y-69045705D01*
X179194381Y-69250962D01*
X179194383Y-69250966D01*
X179194384Y-69250970D01*
X179249272Y-69368678D01*
X179284195Y-69443570D01*
X179284197Y-69443574D01*
X179406081Y-69617642D01*
X179406086Y-69617648D01*
X179556351Y-69767913D01*
X179556357Y-69767918D01*
X179730425Y-69889802D01*
X179730427Y-69889803D01*
X179730430Y-69889805D01*
X179835187Y-69938654D01*
X179906470Y-69971894D01*
X179958909Y-70018066D01*
X179978061Y-70085260D01*
X179957845Y-70152141D01*
X179906470Y-70196658D01*
X179730678Y-70278631D01*
X179676277Y-70316722D01*
X179676276Y-70316723D01*
X180242980Y-70883427D01*
X180202881Y-70889471D01*
X180077946Y-70949637D01*
X179976295Y-71043955D01*
X179906961Y-71164045D01*
X179890149Y-71237702D01*
X179322723Y-70670276D01*
X179322722Y-70670277D01*
X179284630Y-70724679D01*
X179284629Y-70724681D01*
X179194858Y-70917195D01*
X179194853Y-70917209D01*
X179139878Y-71122380D01*
X179139876Y-71122390D01*
X179121363Y-71333999D01*
X179121363Y-71334000D01*
X179139876Y-71545609D01*
X179139878Y-71545619D01*
X179194853Y-71750790D01*
X179194858Y-71750804D01*
X179284627Y-71943315D01*
X179284633Y-71943325D01*
X179322722Y-71997722D01*
X179322723Y-71997722D01*
X179886220Y-71434225D01*
X179886467Y-71437516D01*
X179937128Y-71566598D01*
X180023586Y-71675013D01*
X180138159Y-71753127D01*
X180242301Y-71785250D01*
X179676277Y-72351275D01*
X179730680Y-72389370D01*
X179730684Y-72389372D01*
X179923195Y-72479141D01*
X179923209Y-72479146D01*
X180128380Y-72534121D01*
X180128390Y-72534123D01*
X180339999Y-72552637D01*
X180340001Y-72552637D01*
X180551609Y-72534123D01*
X180551619Y-72534121D01*
X180756790Y-72479146D01*
X180756804Y-72479141D01*
X180949315Y-72389372D01*
X180949319Y-72389370D01*
X181052353Y-72317224D01*
X181118559Y-72294896D01*
X181186327Y-72311905D01*
X181222744Y-72344486D01*
X181238880Y-72366040D01*
X181268454Y-72405546D01*
X181289812Y-72421534D01*
X181331682Y-72477467D01*
X181339500Y-72520800D01*
X181339500Y-74750216D01*
X181319815Y-74817255D01*
X181303181Y-74837897D01*
X180001922Y-76139156D01*
X179940599Y-76172641D01*
X179870907Y-76167657D01*
X179814974Y-76125785D01*
X179790557Y-76060321D01*
X179790530Y-76059937D01*
X179773393Y-75809396D01*
X179773392Y-75809394D01*
X179713317Y-75520294D01*
X179713312Y-75520277D01*
X179656051Y-75359160D01*
X179614427Y-75242042D01*
X179478574Y-74979857D01*
X179478573Y-74979855D01*
X179478569Y-74979849D01*
X179308291Y-74738619D01*
X179308287Y-74738615D01*
X179308286Y-74738613D01*
X179106734Y-74522804D01*
X179106727Y-74522798D01*
X178877679Y-74336454D01*
X178877675Y-74336451D01*
X178625366Y-74183018D01*
X178354528Y-74065377D01*
X178070191Y-73985709D01*
X178070183Y-73985707D01*
X177777647Y-73945500D01*
X177777645Y-73945500D01*
X177482355Y-73945500D01*
X177482353Y-73945500D01*
X177189816Y-73985707D01*
X177189808Y-73985709D01*
X176905471Y-74065377D01*
X176634633Y-74183018D01*
X176382324Y-74336451D01*
X176382320Y-74336454D01*
X176153272Y-74522798D01*
X176153266Y-74522803D01*
X175951708Y-74738619D01*
X175781430Y-74979849D01*
X175781426Y-74979855D01*
X175645572Y-75242043D01*
X175546687Y-75520277D01*
X175546682Y-75520294D01*
X175486607Y-75809394D01*
X175486606Y-75809396D01*
X175466456Y-76103999D01*
X169936500Y-76103999D01*
X169936500Y-64064000D01*
X175466456Y-64064000D01*
X175486606Y-64358603D01*
X175486607Y-64358605D01*
X175546682Y-64647705D01*
X175546687Y-64647722D01*
X175645572Y-64925956D01*
X175781426Y-65188144D01*
X175781430Y-65188150D01*
X175951708Y-65429380D01*
X175951712Y-65429384D01*
X175951714Y-65429387D01*
X176153266Y-65645196D01*
X176153272Y-65645201D01*
X176382320Y-65831545D01*
X176382324Y-65831548D01*
X176382326Y-65831549D01*
X176382327Y-65831550D01*
X176634629Y-65984979D01*
X176634631Y-65984980D01*
X176634633Y-65984981D01*
X176815191Y-66063408D01*
X176905473Y-66102623D01*
X177189814Y-66182292D01*
X177482352Y-66222499D01*
X177482353Y-66222500D01*
X177482355Y-66222500D01*
X177777647Y-66222500D01*
X177777647Y-66222499D01*
X178070186Y-66182292D01*
X178354527Y-66102623D01*
X178625371Y-65984979D01*
X178877673Y-65831550D01*
X179106734Y-65645196D01*
X179308286Y-65429387D01*
X179478574Y-65188143D01*
X179614427Y-64925958D01*
X179713314Y-64647717D01*
X179713315Y-64647710D01*
X179713317Y-64647705D01*
X179759203Y-64426888D01*
X179773393Y-64358603D01*
X179793544Y-64064000D01*
X179773393Y-63769397D01*
X179752650Y-63669580D01*
X179713317Y-63480294D01*
X179713312Y-63480277D01*
X179654827Y-63315717D01*
X179614427Y-63202042D01*
X179478574Y-62939857D01*
X179478573Y-62939855D01*
X179478569Y-62939849D01*
X179308291Y-62698619D01*
X179308287Y-62698615D01*
X179308286Y-62698613D01*
X179106734Y-62482804D01*
X179031439Y-62421547D01*
X178877679Y-62296454D01*
X178877675Y-62296451D01*
X178625366Y-62143018D01*
X178354528Y-62025377D01*
X178070191Y-61945709D01*
X178070183Y-61945707D01*
X177777647Y-61905500D01*
X177777645Y-61905500D01*
X177482355Y-61905500D01*
X177482353Y-61905500D01*
X177189816Y-61945707D01*
X177189808Y-61945709D01*
X176905471Y-62025377D01*
X176634633Y-62143018D01*
X176382324Y-62296451D01*
X176382320Y-62296454D01*
X176153272Y-62482798D01*
X176153266Y-62482803D01*
X175951708Y-62698619D01*
X175781430Y-62939849D01*
X175781426Y-62939855D01*
X175645572Y-63202043D01*
X175546687Y-63480277D01*
X175546682Y-63480294D01*
X175486607Y-63769394D01*
X175486606Y-63769396D01*
X175466456Y-64064000D01*
X169936500Y-64064000D01*
X169936500Y-51300002D01*
X171695227Y-51300002D01*
X171714306Y-51651900D01*
X171714308Y-51651917D01*
X171771319Y-51999667D01*
X171771325Y-51999693D01*
X171865600Y-52339243D01*
X171865602Y-52339250D01*
X171996043Y-52666634D01*
X171996052Y-52666652D01*
X172161124Y-52978011D01*
X172358896Y-53269702D01*
X172481914Y-53414532D01*
X173652266Y-52244180D01*
X173815130Y-52434870D01*
X174005819Y-52597733D01*
X172832625Y-53770926D01*
X172832625Y-53770928D01*
X172842900Y-53780660D01*
X173123460Y-53993938D01*
X173123464Y-53993941D01*
X173425445Y-54175635D01*
X173745273Y-54323603D01*
X174079256Y-54436136D01*
X174423437Y-54511896D01*
X174773788Y-54549999D01*
X174773795Y-54550000D01*
X175126205Y-54550000D01*
X175126211Y-54549999D01*
X175476562Y-54511896D01*
X175820743Y-54436136D01*
X176154726Y-54323603D01*
X176474554Y-54175635D01*
X176776535Y-53993941D01*
X176776539Y-53993938D01*
X177057093Y-53780665D01*
X177057105Y-53780654D01*
X177067373Y-53770927D01*
X177067373Y-53770926D01*
X175894180Y-52597733D01*
X176084870Y-52434870D01*
X176247733Y-52244180D01*
X177418084Y-53414532D01*
X177418085Y-53414531D01*
X177541102Y-53269704D01*
X177738875Y-52978011D01*
X177903947Y-52666652D01*
X177903956Y-52666634D01*
X177986338Y-52459870D01*
X191943500Y-52459870D01*
X191943501Y-52459876D01*
X191949908Y-52519483D01*
X192000202Y-52654328D01*
X192000206Y-52654335D01*
X192086452Y-52769544D01*
X192086455Y-52769547D01*
X192201664Y-52855793D01*
X192201671Y-52855797D01*
X192336517Y-52906091D01*
X192336516Y-52906091D01*
X192343444Y-52906835D01*
X192396127Y-52912500D01*
X194191872Y-52912499D01*
X194251483Y-52906091D01*
X194386331Y-52855796D01*
X194501546Y-52769546D01*
X194587796Y-52654331D01*
X194636810Y-52522916D01*
X194678681Y-52466984D01*
X194744145Y-52442566D01*
X194812418Y-52457417D01*
X194840672Y-52478568D01*
X194962599Y-52600495D01*
X195057055Y-52666634D01*
X195156165Y-52736032D01*
X195156167Y-52736033D01*
X195156170Y-52736035D01*
X195370337Y-52835903D01*
X195598592Y-52897063D01*
X195775034Y-52912500D01*
X195833999Y-52917659D01*
X195834000Y-52917659D01*
X195834001Y-52917659D01*
X195892966Y-52912500D01*
X196069408Y-52897063D01*
X196297663Y-52835903D01*
X196511830Y-52736035D01*
X196705401Y-52600495D01*
X196872495Y-52433401D01*
X197002730Y-52247405D01*
X197057307Y-52203781D01*
X197126805Y-52196587D01*
X197189160Y-52228110D01*
X197205879Y-52247405D01*
X197335890Y-52433078D01*
X197502917Y-52600105D01*
X197696421Y-52735600D01*
X197910507Y-52835429D01*
X197910516Y-52835433D01*
X198124000Y-52892634D01*
X198124000Y-51997501D01*
X198231685Y-52046680D01*
X198338237Y-52062000D01*
X198409763Y-52062000D01*
X198516315Y-52046680D01*
X198624000Y-51997501D01*
X198624000Y-52892633D01*
X198837483Y-52835433D01*
X198837492Y-52835429D01*
X199051578Y-52735600D01*
X199245082Y-52600105D01*
X199412105Y-52433082D01*
X199547600Y-52239578D01*
X199647429Y-52025492D01*
X199647432Y-52025486D01*
X199704636Y-51812000D01*
X198807686Y-51812000D01*
X198833493Y-51771844D01*
X198874000Y-51633889D01*
X198874000Y-51490111D01*
X198833493Y-51352156D01*
X198832109Y-51350002D01*
X241655227Y-51350002D01*
X241674306Y-51701900D01*
X241674308Y-51701917D01*
X241731319Y-52049667D01*
X241731325Y-52049693D01*
X241825600Y-52389243D01*
X241825602Y-52389250D01*
X241956043Y-52716634D01*
X241956052Y-52716652D01*
X242121124Y-53028011D01*
X242318896Y-53319702D01*
X242441914Y-53464532D01*
X243612266Y-52294179D01*
X243775130Y-52484870D01*
X243965819Y-52647733D01*
X242792625Y-53820926D01*
X242792625Y-53820928D01*
X242802900Y-53830660D01*
X243083460Y-54043938D01*
X243083464Y-54043941D01*
X243385445Y-54225635D01*
X243705273Y-54373603D01*
X244039256Y-54486136D01*
X244383437Y-54561896D01*
X244733788Y-54599999D01*
X244733795Y-54600000D01*
X245086205Y-54600000D01*
X245086211Y-54599999D01*
X245436562Y-54561896D01*
X245780743Y-54486136D01*
X246114726Y-54373603D01*
X246434554Y-54225635D01*
X246736535Y-54043941D01*
X246736539Y-54043938D01*
X247017093Y-53830665D01*
X247017105Y-53830654D01*
X247027373Y-53820927D01*
X247027373Y-53820926D01*
X245854180Y-52647733D01*
X246044870Y-52484870D01*
X246207733Y-52294180D01*
X247378084Y-53464532D01*
X247378085Y-53464531D01*
X247501102Y-53319704D01*
X247698875Y-53028011D01*
X247863947Y-52716652D01*
X247863956Y-52716634D01*
X247994397Y-52389250D01*
X247994399Y-52389243D01*
X248088674Y-52049693D01*
X248088680Y-52049667D01*
X248145691Y-51701917D01*
X248145693Y-51701900D01*
X248164773Y-51350002D01*
X248164773Y-51349997D01*
X248145693Y-50998099D01*
X248145691Y-50998082D01*
X248088680Y-50650332D01*
X248088674Y-50650306D01*
X247994399Y-50310756D01*
X247994397Y-50310749D01*
X247863956Y-49983365D01*
X247863947Y-49983347D01*
X247698875Y-49671988D01*
X247501099Y-49380291D01*
X247378085Y-49235467D01*
X247378084Y-49235466D01*
X246207732Y-50405818D01*
X246044870Y-50215130D01*
X245854180Y-50052266D01*
X247027374Y-48879073D01*
X247027373Y-48879072D01*
X247017099Y-48869340D01*
X247017087Y-48869330D01*
X246736539Y-48656061D01*
X246736535Y-48656058D01*
X246434554Y-48474364D01*
X246114726Y-48326396D01*
X245780743Y-48213863D01*
X245436562Y-48138103D01*
X245086211Y-48100000D01*
X244733788Y-48100000D01*
X244383437Y-48138103D01*
X244039256Y-48213863D01*
X243705273Y-48326396D01*
X243385445Y-48474364D01*
X243083464Y-48656058D01*
X243083460Y-48656061D01*
X242802906Y-48869334D01*
X242792625Y-48879071D01*
X242792625Y-48879073D01*
X243965819Y-50052266D01*
X243775130Y-50215130D01*
X243612267Y-50405818D01*
X242441914Y-49235466D01*
X242441913Y-49235466D01*
X242318896Y-49380296D01*
X242121124Y-49671988D01*
X241956052Y-49983347D01*
X241956043Y-49983365D01*
X241825602Y-50310749D01*
X241825600Y-50310756D01*
X241731325Y-50650306D01*
X241731319Y-50650332D01*
X241674308Y-50998082D01*
X241674306Y-50998099D01*
X241655227Y-51349997D01*
X241655227Y-51350002D01*
X198832109Y-51350002D01*
X198807686Y-51312000D01*
X199704636Y-51312000D01*
X199704635Y-51311999D01*
X199647432Y-51098513D01*
X199647429Y-51098507D01*
X199547600Y-50884422D01*
X199547599Y-50884420D01*
X199412113Y-50690926D01*
X199412108Y-50690920D01*
X199245082Y-50523894D01*
X199051578Y-50388399D01*
X198837492Y-50288570D01*
X198837486Y-50288567D01*
X198624000Y-50231364D01*
X198624000Y-51126498D01*
X198516315Y-51077320D01*
X198409763Y-51062000D01*
X198338237Y-51062000D01*
X198231685Y-51077320D01*
X198124000Y-51126498D01*
X198124000Y-50231364D01*
X198123999Y-50231364D01*
X197910513Y-50288567D01*
X197910507Y-50288570D01*
X197696422Y-50388399D01*
X197696420Y-50388400D01*
X197502926Y-50523886D01*
X197502920Y-50523891D01*
X197335891Y-50690920D01*
X197335890Y-50690922D01*
X197205880Y-50876595D01*
X197151303Y-50920219D01*
X197081804Y-50927412D01*
X197019450Y-50895890D01*
X197002730Y-50876594D01*
X196872494Y-50690597D01*
X196705402Y-50523506D01*
X196705395Y-50523501D01*
X196511834Y-50387967D01*
X196511830Y-50387965D01*
X196511829Y-50387964D01*
X196297663Y-50288097D01*
X196297659Y-50288096D01*
X196297655Y-50288094D01*
X196069413Y-50226938D01*
X196069403Y-50226936D01*
X195834001Y-50206341D01*
X195833999Y-50206341D01*
X195598596Y-50226936D01*
X195598586Y-50226938D01*
X195370344Y-50288094D01*
X195370335Y-50288098D01*
X195156171Y-50387964D01*
X195156169Y-50387965D01*
X194962600Y-50523503D01*
X194840673Y-50645430D01*
X194779350Y-50678914D01*
X194709658Y-50673930D01*
X194653725Y-50632058D01*
X194636810Y-50601081D01*
X194587797Y-50469671D01*
X194587793Y-50469664D01*
X194501547Y-50354455D01*
X194501544Y-50354452D01*
X194386335Y-50268206D01*
X194386328Y-50268202D01*
X194251482Y-50217908D01*
X194251483Y-50217908D01*
X194191883Y-50211501D01*
X194191881Y-50211500D01*
X194191873Y-50211500D01*
X194191864Y-50211500D01*
X192396129Y-50211500D01*
X192396123Y-50211501D01*
X192336516Y-50217908D01*
X192201671Y-50268202D01*
X192201664Y-50268206D01*
X192086455Y-50354452D01*
X192086452Y-50354455D01*
X192000206Y-50469664D01*
X192000202Y-50469671D01*
X191949908Y-50604517D01*
X191943501Y-50664116D01*
X191943500Y-50664135D01*
X191943500Y-52459870D01*
X177986338Y-52459870D01*
X178034397Y-52339250D01*
X178034399Y-52339243D01*
X178128674Y-51999693D01*
X178128680Y-51999667D01*
X178185691Y-51651917D01*
X178185693Y-51651900D01*
X178204773Y-51300002D01*
X178204773Y-51299997D01*
X178185693Y-50948099D01*
X178185691Y-50948082D01*
X178128680Y-50600332D01*
X178128674Y-50600306D01*
X178034399Y-50260756D01*
X178034397Y-50260749D01*
X177903956Y-49933365D01*
X177903947Y-49933347D01*
X177738875Y-49621988D01*
X177541099Y-49330291D01*
X177418085Y-49185467D01*
X177418084Y-49185466D01*
X176247732Y-50355818D01*
X176084870Y-50165130D01*
X175894180Y-50002266D01*
X177067374Y-48829073D01*
X177067373Y-48829072D01*
X177057099Y-48819340D01*
X177057087Y-48819330D01*
X176776539Y-48606061D01*
X176776535Y-48606058D01*
X176474554Y-48424364D01*
X176154726Y-48276396D01*
X175820743Y-48163863D01*
X175476562Y-48088103D01*
X175126211Y-48050000D01*
X174773788Y-48050000D01*
X174423437Y-48088103D01*
X174079256Y-48163863D01*
X173745273Y-48276396D01*
X173425445Y-48424364D01*
X173123464Y-48606058D01*
X173123460Y-48606061D01*
X172842906Y-48819334D01*
X172832625Y-48829071D01*
X172832625Y-48829073D01*
X174005819Y-50002266D01*
X173815130Y-50165130D01*
X173652266Y-50355818D01*
X172481914Y-49185466D01*
X172481913Y-49185466D01*
X172358896Y-49330296D01*
X172161124Y-49621988D01*
X171996052Y-49933347D01*
X171996043Y-49933365D01*
X171865602Y-50260749D01*
X171865600Y-50260756D01*
X171771325Y-50600306D01*
X171771319Y-50600332D01*
X171714308Y-50948082D01*
X171714306Y-50948099D01*
X171695227Y-51299997D01*
X171695227Y-51300002D01*
X169936500Y-51300002D01*
X169936500Y-46498500D01*
X169956185Y-46431461D01*
X170008989Y-46385706D01*
X170060500Y-46374500D01*
X249811500Y-46374500D01*
X249878539Y-46394185D01*
G37*
%TD.AperFunction*%
%TD*%
M02*
