%TF.GenerationSoftware,KiCad,Pcbnew,7.0.6-0*%
%TF.CreationDate,2023-10-10T09:43:15+11:00*%
%TF.ProjectId,CAN-Scope,43414e2d-5363-46f7-9065-2e6b69636164,rev?*%
%TF.SameCoordinates,Original*%
%TF.FileFunction,Soldermask,Top*%
%TF.FilePolarity,Negative*%
%FSLAX46Y46*%
G04 Gerber Fmt 4.6, Leading zero omitted, Abs format (unit mm)*
G04 Created by KiCad (PCBNEW 7.0.6-0) date 2023-10-10 09:43:15*
%MOMM*%
%LPD*%
G01*
G04 APERTURE LIST*
G04 Aperture macros list*
%AMRoundRect*
0 Rectangle with rounded corners*
0 $1 Rounding radius*
0 $2 $3 $4 $5 $6 $7 $8 $9 X,Y pos of 4 corners*
0 Add a 4 corners polygon primitive as box body*
4,1,4,$2,$3,$4,$5,$6,$7,$8,$9,$2,$3,0*
0 Add four circle primitives for the rounded corners*
1,1,$1+$1,$2,$3*
1,1,$1+$1,$4,$5*
1,1,$1+$1,$6,$7*
1,1,$1+$1,$8,$9*
0 Add four rect primitives between the rounded corners*
20,1,$1+$1,$2,$3,$4,$5,0*
20,1,$1+$1,$4,$5,$6,$7,0*
20,1,$1+$1,$6,$7,$8,$9,0*
20,1,$1+$1,$8,$9,$2,$3,0*%
%AMFreePoly0*
4,1,21,-0.125000,1.200000,0.125000,1.200000,0.125000,1.700000,0.375000,1.700000,0.375000,1.200000,0.825000,1.200000,0.825000,-1.200000,0.375000,-1.200000,0.375000,-1.700000,0.125000,-1.700000,0.125000,-1.200000,-0.125000,-1.200000,-0.125000,-1.700000,-0.375000,-1.700000,-0.375000,-1.200000,-0.825000,-1.200000,-0.825000,1.200000,-0.375000,1.200000,-0.375000,1.700000,-0.125000,1.700000,
-0.125000,1.200000,-0.125000,1.200000,$1*%
G04 Aperture macros list end*
%ADD10R,1.700000X1.700000*%
%ADD11O,1.700000X1.700000*%
%ADD12C,1.712000*%
%ADD13RoundRect,0.102000X0.754000X-0.754000X0.754000X0.754000X-0.754000X0.754000X-0.754000X-0.754000X0*%
%ADD14RoundRect,0.102000X0.400000X1.350000X-0.400000X1.350000X-0.400000X-1.350000X0.400000X-1.350000X0*%
%ADD15RoundRect,0.102000X-0.400000X-1.350000X0.400000X-1.350000X0.400000X1.350000X-0.400000X1.350000X0*%
%ADD16RoundRect,0.102000X-0.714000X0.714000X-0.714000X-0.714000X0.714000X-0.714000X0.714000X0.714000X0*%
%ADD17C,1.632000*%
%ADD18C,3.520000*%
%ADD19RoundRect,0.102000X0.950000X-0.550000X0.950000X0.550000X-0.950000X0.550000X-0.950000X-0.550000X0*%
%ADD20R,1.200000X1.400000*%
%ADD21RoundRect,0.150000X0.150000X-0.825000X0.150000X0.825000X-0.150000X0.825000X-0.150000X-0.825000X0*%
%ADD22RoundRect,0.150000X-0.825000X-0.150000X0.825000X-0.150000X0.825000X0.150000X-0.825000X0.150000X0*%
%ADD23R,0.240000X0.600000*%
%ADD24FreePoly0,270.000000*%
%ADD25RoundRect,0.075000X0.700000X0.075000X-0.700000X0.075000X-0.700000X-0.075000X0.700000X-0.075000X0*%
%ADD26RoundRect,0.075000X0.075000X0.700000X-0.075000X0.700000X-0.075000X-0.700000X0.075000X-0.700000X0*%
%ADD27RoundRect,0.150000X-0.512500X-0.150000X0.512500X-0.150000X0.512500X0.150000X-0.512500X0.150000X0*%
%ADD28RoundRect,0.102000X-0.325000X0.525000X-0.325000X-0.525000X0.325000X-0.525000X0.325000X0.525000X0*%
%ADD29RoundRect,0.102000X-0.500000X0.800000X-0.500000X-0.800000X0.500000X-0.800000X0.500000X0.800000X0*%
%ADD30RoundRect,0.250000X-0.262500X-0.450000X0.262500X-0.450000X0.262500X0.450000X-0.262500X0.450000X0*%
%ADD31RoundRect,0.250000X-0.450000X0.262500X-0.450000X-0.262500X0.450000X-0.262500X0.450000X0.262500X0*%
%ADD32RoundRect,0.250000X0.262500X0.450000X-0.262500X0.450000X-0.262500X-0.450000X0.262500X-0.450000X0*%
%ADD33RoundRect,0.250000X0.450000X-0.262500X0.450000X0.262500X-0.450000X0.262500X-0.450000X-0.262500X0*%
%ADD34R,1.000000X1.500000*%
%ADD35R,1.000000X1.000000*%
%ADD36O,1.000000X1.000000*%
%ADD37C,5.500000*%
%ADD38C,3.600000*%
%ADD39RoundRect,0.243750X-0.243750X-0.456250X0.243750X-0.456250X0.243750X0.456250X-0.243750X0.456250X0*%
%ADD40RoundRect,0.250000X0.250000X0.475000X-0.250000X0.475000X-0.250000X-0.475000X0.250000X-0.475000X0*%
%ADD41RoundRect,0.250000X-0.250000X-0.475000X0.250000X-0.475000X0.250000X0.475000X-0.250000X0.475000X0*%
%ADD42RoundRect,0.250000X-0.475000X0.250000X-0.475000X-0.250000X0.475000X-0.250000X0.475000X0.250000X0*%
%ADD43RoundRect,0.250000X0.475000X-0.250000X0.475000X0.250000X-0.475000X0.250000X-0.475000X-0.250000X0*%
G04 APERTURE END LIST*
D10*
%TO.C,J5*%
X193294000Y-51562000D03*
D11*
X195834000Y-51562000D03*
X198374000Y-51562000D03*
%TD*%
D12*
%TO.C,J4*%
X238172000Y-72812000D03*
X233172000Y-76312000D03*
X238172000Y-79812000D03*
D13*
X233172000Y-83312000D03*
%TD*%
D14*
%TO.C,L1*%
X189652000Y-78232000D03*
D15*
X187452000Y-78232000D03*
%TD*%
D16*
%TO.C,J1*%
X182340000Y-71334000D03*
D17*
X182340000Y-68834000D03*
X180340000Y-68834000D03*
X180340000Y-71334000D03*
D18*
X177630000Y-64064000D03*
X177630000Y-76104000D03*
%TD*%
D19*
%TO.C,Y2*%
X218694000Y-76145000D03*
X218694000Y-73645000D03*
%TD*%
D20*
%TO.C,Y1*%
X223222000Y-71374000D03*
X223222000Y-69174000D03*
X224922000Y-69174000D03*
X224922000Y-71374000D03*
%TD*%
D21*
%TO.C,U5*%
X194056000Y-67180000D03*
X195326000Y-67180000D03*
X196596000Y-67180000D03*
X197866000Y-67180000D03*
X197866000Y-62230000D03*
X196596000Y-62230000D03*
X195326000Y-62230000D03*
X194056000Y-62230000D03*
%TD*%
D22*
%TO.C,U4*%
X220348000Y-82296000D03*
X220348000Y-83566000D03*
X220348000Y-84836000D03*
X220348000Y-86106000D03*
X225298000Y-86106000D03*
X225298000Y-84836000D03*
X225298000Y-83566000D03*
X225298000Y-82296000D03*
%TD*%
D23*
%TO.C,U3*%
X188952000Y-81280000D03*
X188452000Y-81280000D03*
X187952000Y-81280000D03*
X187452000Y-81280000D03*
X186952000Y-81280000D03*
X186952000Y-84080000D03*
X187452000Y-84080000D03*
X187952000Y-84080000D03*
X188452000Y-84080000D03*
X188952000Y-84080000D03*
D24*
X187952000Y-82680000D03*
%TD*%
D25*
%TO.C,U2*%
X215646000Y-75062000D03*
X215646000Y-74562000D03*
X215646000Y-74062000D03*
X215646000Y-73562000D03*
X215646000Y-73062000D03*
X215646000Y-72562000D03*
X215646000Y-72062000D03*
X215646000Y-71562000D03*
X215646000Y-71062000D03*
X215646000Y-70562000D03*
X215646000Y-70062000D03*
X215646000Y-69562000D03*
X215646000Y-69062000D03*
X215646000Y-68562000D03*
X215646000Y-68062000D03*
X215646000Y-67562000D03*
D26*
X213721000Y-65637000D03*
X213221000Y-65637000D03*
X212721000Y-65637000D03*
X212221000Y-65637000D03*
X211721000Y-65637000D03*
X211221000Y-65637000D03*
X210721000Y-65637000D03*
X210221000Y-65637000D03*
X209721000Y-65637000D03*
X209221000Y-65637000D03*
X208721000Y-65637000D03*
X208221000Y-65637000D03*
X207721000Y-65637000D03*
X207221000Y-65637000D03*
X206721000Y-65637000D03*
X206221000Y-65637000D03*
D25*
X204296000Y-67562000D03*
X204296000Y-68062000D03*
X204296000Y-68562000D03*
X204296000Y-69062000D03*
X204296000Y-69562000D03*
X204296000Y-70062000D03*
X204296000Y-70562000D03*
X204296000Y-71062000D03*
X204296000Y-71562000D03*
X204296000Y-72062000D03*
X204296000Y-72562000D03*
X204296000Y-73062000D03*
X204296000Y-73562000D03*
X204296000Y-74062000D03*
X204296000Y-74562000D03*
X204296000Y-75062000D03*
D26*
X206221000Y-76987000D03*
X206721000Y-76987000D03*
X207221000Y-76987000D03*
X207721000Y-76987000D03*
X208221000Y-76987000D03*
X208721000Y-76987000D03*
X209221000Y-76987000D03*
X209721000Y-76987000D03*
X210221000Y-76987000D03*
X210721000Y-76987000D03*
X211221000Y-76987000D03*
X211721000Y-76987000D03*
X212221000Y-76987000D03*
X212721000Y-76987000D03*
X213221000Y-76987000D03*
X213721000Y-76987000D03*
%TD*%
D27*
%TO.C,U1*%
X187076500Y-68900000D03*
X187076500Y-69850000D03*
X187076500Y-70800000D03*
X189351500Y-70800000D03*
X189351500Y-69850000D03*
X189351500Y-68900000D03*
%TD*%
D28*
%TO.C,SW1*%
X223638000Y-58095000D03*
X223638000Y-62245000D03*
X221488000Y-58095000D03*
X221488000Y-62245000D03*
%TD*%
D29*
%TO.C,S1*%
X207518000Y-90434500D03*
X210018000Y-90434500D03*
X212518000Y-90434500D03*
X207518000Y-88034500D03*
X210018000Y-88034500D03*
X212518000Y-88034500D03*
%TD*%
D30*
%TO.C,R10*%
X198511000Y-59580000D03*
X196686000Y-59580000D03*
%TD*%
%TO.C,R9*%
X193116000Y-59580000D03*
X194941000Y-59580000D03*
%TD*%
%TO.C,R8*%
X198521000Y-57490000D03*
X196696000Y-57490000D03*
%TD*%
%TO.C,R7*%
X194931000Y-57470000D03*
X193106000Y-57470000D03*
%TD*%
D31*
%TO.C,R6*%
X228600000Y-83519000D03*
X228600000Y-85344000D03*
%TD*%
D30*
%TO.C,R5*%
X187499000Y-88392000D03*
X185674000Y-88392000D03*
%TD*%
D32*
%TO.C,R4*%
X198223500Y-92710000D03*
X200048500Y-92710000D03*
%TD*%
D30*
%TO.C,R3*%
X174015000Y-80772000D03*
X175840000Y-80772000D03*
%TD*%
D33*
%TO.C,R2*%
X184658000Y-79756000D03*
X184658000Y-81581000D03*
%TD*%
%TO.C,R1*%
X210058000Y-83773000D03*
X210058000Y-85598000D03*
%TD*%
D34*
%TO.C,JP1*%
X202154000Y-88392000D03*
X203454000Y-88392000D03*
%TD*%
D35*
%TO.C,J3*%
X194564000Y-89916000D03*
D36*
X194564000Y-88646000D03*
X195834000Y-89916000D03*
X195834000Y-88646000D03*
X197104000Y-89916000D03*
X197104000Y-88646000D03*
X198374000Y-89916000D03*
X198374000Y-88646000D03*
X199644000Y-89916000D03*
X199644000Y-88646000D03*
%TD*%
D11*
%TO.C,J2*%
X218415000Y-56134000D03*
X218415000Y-58674000D03*
D10*
X218415000Y-61214000D03*
%TD*%
D37*
%TO.C,H4*%
X174920000Y-91330000D03*
D38*
X174920000Y-91330000D03*
%TD*%
D37*
%TO.C,H3*%
X174950000Y-51300000D03*
D38*
X174950000Y-51300000D03*
%TD*%
D37*
%TO.C,H2*%
X244910000Y-51350000D03*
D38*
X244910000Y-51350000D03*
%TD*%
D37*
%TO.C,H1*%
X244920000Y-91370000D03*
D38*
X244920000Y-91370000D03*
%TD*%
D32*
%TO.C,FB1*%
X198016500Y-81534000D03*
X196191500Y-81534000D03*
%TD*%
D39*
%TO.C,D2*%
X191158500Y-88392000D03*
X189283500Y-88392000D03*
%TD*%
%TO.C,D1*%
X177800000Y-80772000D03*
X179675000Y-80772000D03*
%TD*%
D40*
%TO.C,C23*%
X196596000Y-55372000D03*
X194696000Y-55372000D03*
%TD*%
D41*
%TO.C,C22*%
X196662000Y-69822000D03*
X198562000Y-69822000D03*
%TD*%
D40*
%TO.C,C21*%
X221742000Y-88138000D03*
X219842000Y-88138000D03*
%TD*%
D42*
%TO.C,C20*%
X200152000Y-62202000D03*
X200152000Y-64102000D03*
%TD*%
D40*
%TO.C,C19*%
X225740000Y-88138000D03*
X223840000Y-88138000D03*
%TD*%
D42*
%TO.C,C18*%
X194056000Y-81280000D03*
X194056000Y-83180000D03*
%TD*%
D43*
%TO.C,C17*%
X220726000Y-69022000D03*
X220726000Y-67122000D03*
%TD*%
D42*
%TO.C,C16*%
X191770000Y-81280000D03*
X191770000Y-83180000D03*
%TD*%
D43*
%TO.C,C15*%
X218440000Y-69022000D03*
X218440000Y-67122000D03*
%TD*%
D40*
%TO.C,C14*%
X212278000Y-62738000D03*
X210378000Y-62738000D03*
%TD*%
D42*
%TO.C,C13*%
X184658000Y-85278000D03*
X184658000Y-83378000D03*
%TD*%
D41*
%TO.C,C12*%
X218186000Y-78232000D03*
X220086000Y-78232000D03*
%TD*%
D43*
%TO.C,C11*%
X207010000Y-62992000D03*
X207010000Y-61092000D03*
%TD*%
%TO.C,C10*%
X225806000Y-62245000D03*
X225806000Y-60345000D03*
%TD*%
D42*
%TO.C,C9*%
X182372000Y-79756000D03*
X182372000Y-81656000D03*
%TD*%
D41*
%TO.C,C8*%
X214188000Y-79756000D03*
X216088000Y-79756000D03*
%TD*%
%TO.C,C7*%
X222946000Y-73660000D03*
X221046000Y-73660000D03*
%TD*%
%TO.C,C6*%
X223012000Y-75946000D03*
X221112000Y-75946000D03*
%TD*%
%TO.C,C5*%
X223144000Y-66802000D03*
X225044000Y-66802000D03*
%TD*%
D40*
%TO.C,C4*%
X202758000Y-62992000D03*
X204658000Y-62992000D03*
%TD*%
D42*
%TO.C,C3*%
X201676000Y-75184000D03*
X201676000Y-77084000D03*
%TD*%
D41*
%TO.C,C2*%
X226954000Y-71374000D03*
X228854000Y-71374000D03*
%TD*%
D42*
%TO.C,C1*%
X199390000Y-75184000D03*
X199390000Y-77084000D03*
%TD*%
M02*
