M48
; DRILL file {KiCad 7.0.6-0} date 2023 October 10, Tuesday 09:43:13
; FORMAT={-:-/ absolute / inch / decimal}
; #@! TF.CreationDate,2023-10-10T09:43:13+11:00
; #@! TF.GenerationSoftware,Kicad,Pcbnew,7.0.6-0
; #@! TF.FileFunction,Plated,1,2,PTH
FMAT,2
INCH
; #@! TA.AperFunction,Plated,PTH,ComponentDrill
T1C0.0079
; #@! TA.AperFunction,Plated,PTH,ViaDrill
T2C0.0157
; #@! TA.AperFunction,Plated,PTH,ComponentDrill
T3C0.0256
; #@! TA.AperFunction,Plated,PTH,ComponentDrill
T4C0.0362
; #@! TA.AperFunction,Plated,PTH,ComponentDrill
T5C0.0394
; #@! TA.AperFunction,Plated,PTH,ComponentDrill
T6C0.0906
; #@! TA.AperFunction,Plated,PTH,ComponentDrill
T7C0.1260
%
G90
G05
T1
X7.3623Y-3.2551
X7.3997Y-3.2325
X7.3997Y-3.2778
X7.4371Y-3.2551
T2
X7.29Y-2.82
X7.41Y-2.65
X7.41Y-2.87
X7.41Y-3.37
X7.47Y-2.87
X7.6Y-2.75
X7.66Y-2.11
X7.68Y-2.75
X7.68Y-3.41
X7.7Y-2.96
X7.74Y-2.92
X7.75Y-3.01
X7.78Y-3.08
X7.785Y-2.975
X7.8Y-3.4
X7.87Y-3.15
X7.87Y-3.21
X7.87Y-3.26
X7.88Y-2.73
X7.92Y-3.15
X7.92Y-3.21
X7.94Y-2.91
X7.94Y-3.4
X7.9594Y-2.3694
X7.96Y-2.27
X7.96Y-2.83
X7.9894Y-2.3394
X8.06Y-2.36
X8.13Y-3.11
X8.14Y-3.37
X8.15Y-2.66
X8.2Y-3.11
X8.22Y-2.47
X8.25Y-2.34
X8.2862Y-3.1284
X8.35Y-3.3
X8.36Y-2.66
X8.37Y-2.87
X8.37Y-2.93
X8.37Y-3.37
X8.41Y-2.66
X8.41Y-2.74
X8.42Y-2.88
X8.43Y-2.79
X8.43Y-3.22
X8.46Y-2.5
X8.46Y-2.56
X8.49Y-3.6
X8.5Y-3.45
X8.51Y-2.62
X8.54Y-3.49
X8.59Y-2.77
X8.59Y-3.15
X8.59Y-3.3
X8.59Y-3.35
X8.59Y-3.43
X8.7Y-2.81
X8.7Y-3.65
X8.72Y-2.51
T3
X7.66Y-3.49
X7.66Y-3.54
X7.71Y-3.49
X7.71Y-3.54
X7.76Y-3.49
X7.76Y-3.54
X7.81Y-3.49
X7.81Y-3.54
X7.86Y-3.49
X7.86Y-3.54
T4
X7.1Y-2.71
X7.1Y-2.8084
X7.1787Y-2.71
X7.1787Y-2.8084
T5
X7.61Y-2.03
X7.71Y-2.03
X7.81Y-2.03
X8.599Y-2.21
X8.599Y-2.31
X8.599Y-2.41
X9.18Y-3.0044
X9.18Y-3.28
X9.3769Y-2.8666
X9.3769Y-3.1422
T6
X6.9933Y-2.5222
X6.9933Y-2.9962
T7
X6.8866Y-3.5957
X6.8878Y-2.0197
X9.6421Y-2.0217
X9.6425Y-3.5972
T0
M30
